<mxfile host="app.diagrams.net" modified="2021-07-06T11:21:30.032Z" agent="5.0 (Windows NT 10.0; Win64; x64) AppleWebKit/537.36 (KHTML, like Gecko) Chrome/91.0.4472.124 Safari/537.36" etag="QzuVxQbP7wlqGpjnAbGd" version="14.8.0" type="github">
  <diagram id="a03M8c42uI6GDb_vrFEr" name="Page-1">
    <mxGraphModel dx="1264" dy="473" grid="1" gridSize="10" guides="1" tooltips="1" connect="1" arrows="1" fold="1" page="1" pageScale="1" pageWidth="850" pageHeight="1100" math="0" shadow="0">
      <root>
        <mxCell id="0" />
        <mxCell id="1" parent="0" />
        <mxCell id="j6Cg3OJ-4-FY4ZUoHzWM-1" value="" style="rounded=1;whiteSpace=wrap;html=1;shadow=1;" parent="1" vertex="1">
          <mxGeometry x="170" y="100" width="120" height="160" as="geometry" />
        </mxCell>
        <mxCell id="j6Cg3OJ-4-FY4ZUoHzWM-2" value="" style="shape=image;verticalLabelPosition=bottom;labelBackgroundColor=#ffffff;verticalAlign=top;aspect=fixed;imageAspect=0;image=data:image/png,iVBORw0KGgoAAAANSUhEUgAAAK8AAADSCAYAAAA8LpBqAAAgAElEQVR4Ae19h59URba//4C7bnq7z7C67rq7b9+Gt+m93+6+J0ExkgUBAwaQIeecBBFFySACKqCIICIyOeccYHLqPJ1zmOnJgN/f59zxMh2qu293z4w9cu/n058bum7VqVPfe+rUqVOn7oB4iBwYpRy4Y5TSLZItcgAieEUQjFoOiOAdtU0nEi6CV8TAqOWACN5R23Qi4SJ4RQyMWg6I4B21TScSLoJXxMCo5YAI3lHbdCLhInhFDIxaDojgHbVNJxIuglfEwKjlgAjeUdt0IuEieEUMjFoOiOAdBU339ddfo6+rF5ZSFfRbS2Cfkwf94ykwTkyDc14RDIevotPgws2bN0dBbYaORBG8Q8fLYcmpw+qC4asm2JaWwDguCbqHE6B++IrXzzAmCcZpmej6vBTdnV3DQkcsZiqCNwZb5Xr/dTjkFpg/rIN+RgZM41OgeTjeC7C+AKZ786OpMK0sRHu9ETdu3IjBmg0tSSJ4h5afUeV288YNdDSZod9YBNvEbOjG+EtZFmg9nxHILU9mQHWgFL3ubpDK8V09RPDGQMv2d/WiLaEe9mWlMIxPhm5MYkgp6wlY1rVxbDLsrxTCnqvG1ze/mwAWwfstgZcGV3aNBe2X5LDMyoFlTGrUgGWB2DwuBc5d1XCoLN9STYevWBG8w8dbZs493d3oldlh2lkB65MZ0A+BlGWB1vOZ9uEEWCZnwna+GW5XB5Ou0fhQBO8ItNrNGzfR2e6GLqkJ9lVlMD+RBn0E+qwnICO5NoxLgnNZGWzlaly/fn0Eaj68RYjgHUb+0mDJojTAdrYJ1pfzYRwnzGoQCTCFvqN9OB6GR5PhPFwPu350qxIieIcBvH3dvdDVKWF6pwrmKZkwjk8eFn1WKGBZ6Qxjk2CYkwVrugy9XT3DwIXhz1IE7xDxmKTs9b5+WHIVMC8shPWJDJCUYwFnKJ7pxybC+mh61DqzcXwKLGtKYVYaR51ZTQRvlOAl0HaZ2qE6XQnbvCIYxyWDBkhDAVDfPDQPX4FpbAqsz+ZA/0E1zI0aGN6/BtPjaVF9KLqHE2GZkgXzR/Xo7+qLkiMj97oI3gh5TVLW2KSB62gjTE+lc6DyBdtQ3dNkhWlCKpwLSmC41Ihud7cX1c5GIyxxhTA9khLVR2MakwzbqwXQVyhwYxQM6ETwesEg+A3ZZjs7OtFdYoRhcT5sj2dBO2b4VAMCrX1iNto25qO9zoz+nr6AXTv9Z02QwjojJ6KZOc8PzfpYOmxvVMFutsa0s48I3uB45f4ls5LLYIfuk1o4Xiv+ZhZsGFWDR1JgejYbzo+aYWzWCDZrkQpjU5th2lMJyxMZgvwhPEHrec19OLPzob/YgL6unoAfjQD2DVsSEbxBWEu+BupaOTQHKmB+JhOmscNnNSC9k6wStiUlaDpfBre1gwMMATKcg9LfuH4DbYXNsC8ohuHhpOhUiUdSYFtdCnWVNOaksAheBjK6XG7YS9UwbyzlZsF0Y6P3NfCUavw1DcDIj8E6OQuOrRVwlmvR1dk1JFKOQNzZ4Ybpw1rYpuVENYgkZx/rxEwY368GuWjGyiGC95uWoMbu6+yF4VIDZ/80PZoaVbfLAzTQ2TQuBeaJGXC83wiDSovr/f3DggnS0/VKDWxrymAeF53/hG5sAiyzcmErbgPNGn7bhwheAG6tA6bD12CbnQfyxhLiOxsIlMGek92XVA97XDHa45XoNLmGRMoKAdH13n7ok5phfz4fhij8KYg35gmpMG4rQ0ebTUjRw5bmtgevuUwJy9MZoNUIwYAXzX/kfGN9OhP29eWwFCq/VRfFdqsTlj1XYXos8p6ljdSdhxNgnpQJV4Ia3R3fzuqN2xq8/e4emGdmDQtoSZ81jE+CdVo2tIcq0KPvwI3+2HCGoS7fVqeDbWExDOOiG4TSKg/Tq/lwN5oFW0WGShTf1uBVf1UHy9jo9EBfiTzQrabBMr8Azng5HDrriKkG4YKCBqauL6UwTc9ENINSUofMT6VDsbcY7hFUhW5r8LYcKQDNKvkCMJJ7Ug0Mj6XAubkSrVk1IB0zXDNXuOAbivREo1mmh2NXNYyPkL7vvbgzHF4YxybB/FwOHJlS9Pb0DgV5QfO4zcFbGBV4ScqSxLI9mwvT3qtwS6zo7R3+RgvaohH+SWCz56pge6kQ+rHR6f/mCWkwbiqBvcUwrLbh2xu8RyMDL0kny/g0GJ7JgP2yBDZLbE+jhoPndruLM9+Zx0enTtG0uXViBjQfVHEul8PRC93W4JV/XAHzWOHOLJxqMD4Jzo1VsOWpuNW54QBjNKV11hngWFUOskeHozr4piW/YefCUtjL1ENe/dsbvJ9UCgavbkIydDtK4GwyDHkjxGqGFD9Cc74Gthk5UfsN09jCdaCO8xEZqvre1uBVfnZVEHhJt7W8lMdNtw4V40dLPtTdd5rbod1VCuvj5OwT+YBOOyYR9qk5sCfIhmRAd1uDV5PQIMhUxpm/XspFV2fnLcxRo3Z3d6O/b3imdW8VFCMX/X19cJfpYJ5XAFp94aseCL0n8BsfTYFiRwGud0Rn9769wRsvHLymOdno8XACJ68v3T4NlB8oYFabR4VZLNrvgJPCLjdaTxTDMjGTGTdNKIhpGr5tfxn6o/DpuK3Bq09vgVXAJAVJC9PMLFzvGFwi49A5IF8iQeP8OsjXS6BIk/utcIgWLLH6PsVB61TYYFxbxK3woJ5JKGg905FjUldbe8TVvG3AS1KDfp6HqUAO69i0kIy/BV734CrbdnM7ZEtaUTevmvu1LmyC7A0J3Dr3t+q74Fm/4b7u6emBNLMWlukDcdXI58ETnKGuyXpjP9scMZm3BXj7uvugKVJDn6HzYpQpTyYIvNQIhslp6LMPOqC0m9o5ycuDl84N82shXdEC+TkZejoGge5V6HfshgRCh8EB04FrsDyWHtZCUAKv8a2KiDnynQUvMdVpckKTpYZimxSKhRJIDrd6McpaoRa8OsI4KQ39tkHwdlg70LKo8Zbk9QRx82sNkG2UQFEuH7Uzbl6MEnBD/LZVamCbXwStwGhABF7dpiIBubOTfOfAS9OzFqUZ2rNqyFdL0fRaPQew+nk1aDnQ5MUF+zUNjAJdIQ0TU73A2+noRP2CWiZ4eSBLl7RAeUSBdn37sE6TelXqW76hgCvmDaWCVm4QeLXrCyOm+DsBXlot0NPZA22pBpJ9zZCtbL0FWh5IBN7mvY1ejLJf0wr249U+msS5NfIZDIC3Jih4qWxuQLdOgpZLzehsHzS18fl8F8+2AzWCVjDf9uC1GW1QJMqhelOBlrhGTu/kAet5JvA27Kr1wkq7xCK4i9OOT0C3bnBk3N3ejcbFdSHBy9NAtLW9o4SxbvRFpvFimoAb275qQeAlh3briiK/gbSAIrgko1Ly9vf2w66wQ/O5Gs2rGjnQEjh5oLDOLPB2yKyCl/wQeLs0g4sPe929aFpej1DletJCaSXLmtH2qRJOg1NoG426dI6TjYLBa7kdwEsDAlrSbam3QLKnGYoV0oBS1hMwntet25q8vnK3XDh4NWPi0d5ivgWkvq4+NK9q4NQCzzKEXJMqIV3fCk2+GuQ/QHX7Lh3OMy2CwWtaXBDxeGBUSN5uVzf0aTq07Vag4bXaiABDoJJsa/WywfaY3dCOF7asncDb0eodEtShdcBwWgey8YYjgYkWSt+ysBHqoyrYlfbvEnbhPC0MvNyC1FfyuA84EgbELHhpEGZSmmC4okPrqia0LmgKqhYIkXiyrRKvJds95g7B4NWOTQC5CfoeNNukLdFAvl0CMpEJocMzDdmGCcSWTDPcLrdv9qPyvuMrhSDJOwDe3O8WeCnwhvoTFeTLJWGrBp7A8L1uWd+EHo9YtDTpoH1EmOSlkKJkx2Qd1O13tXdB8YUc0hWtaJgX3ITmSxfdN8c1QLZNwqlFo93ZRyh4aVrZ8EI2t2SKxddQz2JO8n598yZ0Z1VoWRi9pOVBws18LWmBZF8LaLDHHzd6+qF7XNgaNloaY6tig5fPj3oLq8IK1UE5JIuaI5LCrYuboP1IDbPGHLEuyNPzbZ07EpSCnHYIvLoZ6dzunpHQGnPgJYcXyeLwG54HqueZJihodK87oUFLcQt6u3u9BkfhgJe8oEyFipA8JilM5VQnVkO+SYqm+QOTJJ50hbqmd+QbpGhLVY1Kl0t3lkbQJMV3Drzaeg2Ui2VhSy0eEDQQalpQD8UmKRo+qkOnrpObomWN6G/2XYd+YmjHHPJtIPAac6QhwcsnoPI6zZ2QnmyFdHkr6sNUJfgBXdt+BfRNOi9dnS8jVs+dAsFLfNVPSfNyNQ2nTjEneQ3NeqiWyiMCr3RRC2SbW2ErtMJmsYXsdr++cROmZzIFeUJxkjdXFg5vubSkv/bU9kC2WYLmBeEP6AjE8hVSqD8bkMKsjzBsoob5hc58HSiuWSivMk4oTE5Hd4Qzj7EH3qbwwEuqATnIaN9XQ1GmQG+X8KXnBF7jtAxBTLaMS4Um0Xt6ORwMdHd0Q3VZwXmdRTKgo3q27VRCW6zxMveFQ8NIpe2qMEI3TthA2Dg5Dd3tgw5P4dAYc+A1SYxQLJGGlLwkkRQbZNCd1sCpjnC26mtwQTKESAgOvAkN4fCWmdbZ5oRqr5z74KgOvLoj9Cxd1Azth2pYNJaQPQuTgBF42FVhEhyBxzwxHW7r4LR7OOTFHHgtCgtkiwedvAM1qupdBVxWV9QNaH4xT7DkVcdHD15qnOt916EuaoNyswyNrwn3j+B5UT+/hvOY06Vpo1pGEw5Qwknb02CD4RFhgUtoNUWkMX9jELzmkOAliaU+rBqSFaiWucLAS/EdFOeuhtOGQdOS7mo32jldVra8JewBHQGZJjeUSXIvC0rQQkfoz75WB4wThC3S5MBrGfQZCYfEmAOvU+8I6OR9S/LMq4FqnwK0DCXawxZXJEjyDoC3KtrivN4nAFPERuU1JdTvqCKaoZMubYFLG1njexEzhDe9rXbB4LU8lckFI4yk+NgDr8GJ5kXBR+UkeYcKvPaFxYLAS/ufyT6OfMlKsMYhENOsoiZRDdV6WVizijRtrkvWxpT07TZaub3hBI0lRiN4qcHIS6y9zYWb1wdDxLuMLkHgVe6Wo7trcD+yr29+DfIzoHzDOeyLhIGXTGUtx4vDyTrstDRDZ1AboDnWBsnCFkGDOZo91JxuC7veYRMXxgtqpVoweK0EXq23w5PQor4Vydvj7kHTFw24OrsEBf/IhLtj0CFFyPIakrzKN2Ve4LVIzah5oRLmWqPQunPpnGvKBUleDrwnhhe8POE3+m9AW6yFYrsMNDjj1SXWmf6PNfBqCLxPCJv8sT+ZCbPC3+GJ50Ww84iBl3Q7u8YO5YdS5P8zA1n3JCL57i+R818p6HEO6q6CwbtLhq6uQfugWWJC9v3JyPhFAmSHJZwlIljF+f+cayqEgXdMEpSHI18syJcXzllS2RpyqpwD74dtMWX7NWj0sEwUZj+PafD2dPdAV69F9YoK5P8uDan3fIWkuy/d+mX9PgldlkEQ0vKa+rgQ0mZeDWRbJOh0D64Jc6jtSL8/gcs37Z4rKPjfTBjydCF9A5zrKwWBl/as6Hh36KwNQkAsr5FBvkwSXPLOq0HbMVXUJkMh9AhNExZ4n8iCUaIVmrVXumGRvKS7dTo7Ib3ciopZRcj+TTJS7/YGLQ9gX/BSjIWGJbVBnbtJbZBtafUCr1PrQPoD8bc+CpLqGQ8moHZxGSzywB5azu1VgpYCEXjdeyMPkOHFdYE38ho5ZEuD27yJF23vK2MLvFoDt7eckAGb44ks6JvbBHLEO9mQg9eisqDuSDVKxuci494ETjXggco6Z/42EW5dxy2qaHmNEPBKNzZzK4b5F33By5eVds9XyPtLGqRnmtDdOTjAu/XeNmHgpZWutjevjujASFGn4HyaWbou/4wD75HYAq/ZYIJ9eo6gHu1bBy/5E+iv6dCwuRq5v09D+n1XbklAHkSBzum/ike7ctBOSf62zWsaQkpe6doWXO8cjDLYZe9E6v2By834eQJKns3nVmfwwKWzc9c1QZKXdqo07bo6ohJO06IWBF7NQVVMeZ0ReG0CwWt/LBOa+tCupp5txl9HJXnJNKVKUyL/6UzkPpSKlLsvCwYtD2YOvKrBuW2aOm3ZEHxNGEkbydpmXO8aBG+3owtpQcBL5WXdn4SSS94WA+c7tYJCFA2At2pEJa9Q8KoPKWMKvFaTBfYZuYIkr21CBrS1IwzeLmcXrr1QChocpdz9Zdig5cGb+vOvYGu28h8TN+/fuqEJDSFMRC0rGtHrGLRSEHhTHwgseam8zJ8nouCz/Ftl0YVzT41A8CbAvLks4vVWXoUKvNFJtZCvDD1gU++PLclrt9rhmJUvGLyakQQvDcjqNlUh4+6B0T0PxHDONKBK/3k8Ssblol01qDbQMiDpjuaQs0wtyxvRYxvUYfs6+5D116SAA0MevIW+4D1cLyjwiG5MAiwjDF6DwgDF6tAedpp3VdwEjcBvYtiThQNe8yOp6KoeDCkQDnERqQ20zKX0kbyIpC2pFnm/SUPps/nQ5Ws4/1vPWbEB8LaEDV7Ko0/Th/IXC5H5wIAN2fdjIr1X9bHCq+t3vCccvBSDi+IsjNQhGLx7Y0vyOu0OOJ8vFCR5OfBeG8EZNhqglY7LDwu8GffFI/uPKWh8vRaqOhWnHrBAQCCUvx161XDjojovKwWfF9HWeKkORWOykXavtxqRfl882k5JIwIvt8vj8qIh8WTjaQ11tmgtUKwJvSRK87aKm2oPld9I/e9yuuB8QaDD0yOp6K4eVBvDoTEiyUuRAEsfDS15OdXg3isoe6wAjcfq4dDaBc0EyfYNRBznzUGsc8PCWiZ4qfL0ATiNTtRsrUTWL5NuDSQJvOrT3uB1nm4GBRQJZZPkYgyMMHitOisUawSoDbvbRi14ae/jrmJ9OJi9lTYi8Pb39KPkiTwke8yU+XXRv0xAyYw8KBPkoFkz0pOFHrK9AsAbV4t2zaCVgpU3dfGqIgUqJhdyM3vp98ZDfqzFixbnxy2CwEsrXS1LirhNVFhlDcczm350gpd8VWwvCRuwEXi7i0YcvLkBwUsS9+pLpdwS8EgaVXlUHnKFAa0QtsscgrLv7OiE4pQEhb/LhGyfN3hdn7QKGrCRZNY/mgz14XL0dQ5aOQQREGEiWimiXB96MWrbDkVMSV4Cr1UgePXjktCVP4LgJVts8SQCb2ATWeWc4ohtj6rjSr/4ur6qA4HXIRcGXsIOqRKmJgOspd5rv9yX5KBdGkOpDfz/hrHJcLxaBGuuykt3jhCfQV9r58AbWudVbZfHFHg73W6YXxK2QoWiqHekRbY7ZkRqA3XHxVOCg7cqGvCeUIQEb/OCelibIhuleiKmM1EJcjTnwSn0TNuatr9dB1dbZIMNTxoCXbfb2iFbF9zOSx81B94RtIIEopd/Tn7WhleFTQ8TeN1pwSMR8fn6niMGb8kU0nkDS96qmSR5b/iWJ+hed04TMhIkxUAw1ZoE5Rcska1BC/ujwtz3fIGtfTgB5skZcFyUwN0+6JMcrLxw/ut0dXJT5XUhVhnLN0hG1IQXqg49HHiFzbBxkjdeFSpL5v8RgZd8c8vnFAYFb+Xkooi7Mu05tUDwhud4zuIA9SLW7RVR7a1rGJcEx7Ji0AYt168PnR2YwNuyhjZtCe4iGmvg7e3phXFBniCfERoId1wMP5gLtWXE4C2bHRy8FVOKIwav/nNtSPC2LGiEpiQyXckXxJ3WdtgXFEcFYDKlGSakwHmkHnbj0KgS3e5utGxoDOqkRGqDfH0raPVFrBwUJci4rFA4eL+QR0R6xOCteKn4lv3U10xG9xVPFkYMXmOCXhB41cVDA14azHUb2qHZUgTz42mCmO6rQvD3NPjTz8mCNVMOsodHc9CES+uW4E5KBF7Jqmbc6Ist8JoEgpfUhvaPJRGxKSLw0mLHq0vKg/oRlE8ojFgaCAZvYWROzIE4Rdtgucu0MM/IikoKE5CNjyTDuqYUFlXkG6hw4N0sALwrYwe8pFL2GNphfClH0A7xHHg/iszJPyLw0oTD1cXBwVsxoSBi8FKUcNq3wdc85nlPaoMsXXjUxkCAZT0nNUL/3lVYopTCuocTYZ2aBfPpevR3D+5bzCqT9YxMkrKdkpBqQ+uKJlzvHTpdm0VLqGfkHqvPk8KxpRKmJ4X3XgPgbQmVPfP/iMBL3Wzdxmqk3e3tO+CpPhT/X07EI2BLriW0Yw4H3sgUfU9OEEBcASK2OOr1sCwshGG8sADUvOrgezaOSYZtXgEMleFNJlBoAOmu1pAriJsW1aPfHf7H4cmHSK4JBx0WJzrS22B5rQCWsSlhq1w0VnAdrI+k+MgGbER0/bbhA681LzR4KdhGa2JkX6wnp1wGF4r/kQ1Nsoq51Wp/Tx+s8VLYZ+QInonzBe/AfTysj2XAvvsa7Gar1xS1Jz2e1wRe2Zuhwdu8uGFEwdvf1wdDmw7WI7WwTs2GcVyyIBWBxRcOvAdGGLx1O64GlbxF/8oO6Dnm2UCsa2eVI6TaIFnQjObL3tuxsvIK9YyWD9FqjqwHk1D1WilMLUY/YJGaZFUZYdpTBcsTGWFLF89GI79g+5x86C81+LmD+tJKQqJm97WQvVDTojr0uaIbHPqW7XtPtNAaQEuxEs6tVbBOyQKpRZ51i+R6ALx1vsUJuo9IbaCcS98pQsY9gZ3R8/+SETl4r4YGL+nEqv1ymFWROTLz3Ol2diP1oQH1h1Y45/5XKmQfNnPhl/g0dKbGI0mozG/iNoem1cSRNBb/jml8CmyrS6G+KvX7WDzLrXqzIuRsY+OCOnQaB8MAeL4f7TXVu8PWjpZLFXAsLYX50VRB+03w9Qx1Jjuv63hkQmj4wPvX9IjB217tDCltaPBGAG5d1QxLnonbjYcYHe7BgffXg0vmSW8np/XCaTkwVOr8gEVldHa4YTpZA/u0nKgakqSOdXImTCdqAob5pHi+kr0taF0U2OrAgdcwtDN8NHljkerhONUEy+xcmB5JjVg1CAZgy6NpcFWOcNyGykNlyLwnMaBDes4fU3GzR7gbpCfo3K0daIoTvhEJhfpse1MBm8wqyF/Ysyxaap/152S/2UKa+s59KAXVG6vQ5fKXaqRK6BQaWFeVwDwuNSopTCHwrXNyYStuYzozUTRMR7kVkhUtTG872lgxlHuoZ50DXdOHefP6DXQ0mqFamwvHxGxB+6kFA2ew/yiEln19OW5E6JcRseS9drySC9nkaWHwvM76XbLX0vRADGM977B1QLk+tDeVp+mM24xvcSMMF/RwWIR7m3Hg/Ys/ePm6kGrUsLuGRSb37HpvP/SJzbA+lwfDmMh1QOo+zRNSYdxehg4Ne0fMDnM7FJ/IIF3Sgvr5g3u90Wpqe6stII1C/uhq74Tuq0Y4lpdxNmqKUxEMeNH8ZxqTDPOUTBhO1qC3Y3AdohA6PdPEJHhJqqnPt3EbYnsCVMg17UIp3ySBsUwvyFRHEXqy/5riJ3l58JIErt4QOrSpy+qEeXclTI9R9xp6ZQar8dsevsKpIZYpmbCntKG7YzAMFt9oxBtzvQnyXdJbG7QQeB0SNuD591hnss3aVWa0fyqFaUYWZ+pi0TUUz0hFMo5PgfOlQmg+uop2a4RbMXhUJGLwNp6vCzpgS/9lAnodkY+AaadKxRkZZMtoG6jgjiksUJOO2HZQCaPC4Ke3etSf66ZzH04PDt6NlZ6vBLwmLzpbjRbWuGKQs040jU4NbZyXh85Gi980O3Xvfd39UKdpoFgr44JSWxuEu4d2d3bBUaeHcVMpbE9lgWJSRENrsHfJumJ7KhOKJZloL9eht7NnyPygIwZv88WGoOBNeyDea2l6wBYP8kdfbx9kJTLIXo9sGyga0CnWSqH+UoUudxeTaTTVXbm8FFkPsPV3kryVy0uCUOn/V5fLDcclKYzTMgVv6cQCALlcWp7KgGJvMdxmlx/9BGKj0siFOA3lmE9SttPeAWN8M6xLi7nI5QQsVrnRPtPQ9Pi4ZFimZcF+oBbaagWoLYf6iBi8LZeagsZtIPB2e0R/jJRwaiDa11f6mQSylRHu67ugAao3FZCXypgDIvJpUJ1rQtE/s7kgKrzKQGcCb1lcYdjkE90miQ6uN65BPz4pqpE6rd6wPJcLZ4YCfT3+vRmpElQe66DnZpkOug+rYXk+N6oJhVCg5lSDsUkDK00+boRTMzAZE4g2Fr3hPIsYvIpMOdLv9jYxeTY6RcJxCVxjJoRg8pN1SexQvSPjNhJhqQqhnsmWtaDtjBJWrf8MFzHYrrGhbE0Rsh4aHMBx4F0YPnj5OtGHYctWwPZyAWj/4lAACPY/2ViNm0pga/WfSOHL48+9XT1w1RphfesqzE+nh7XUKRgNrP9IgpufTIdteSks6TK42zuCqmo8jdGeIwdvRgjw3nfZK4BetITy75PZSJOn5tSBUM47LDBzqsQ6KTSZaqYU7u/vh6XajIJ/ZXBqEQVJKXw+my8+4rPL7oTzaD3M46Mzq2nHxMM6KRPqD6+CAOop1eia7LPmbBmM8/NgfTw94sEjC6S+zwxjE7kBqnVXFfqVjiHZ4CYcBkcMXm2xOuj0cPI9X6JySTE6DIPhS8MhLFhaaiSn3gnNmTYucni4AzpK3xLXCNrX1yqxeAGAL7fT4YbyuAzZv0pGwczowcvn66w1wLGyjOu+fcEQzj35DTsXlsJePrD+q8vYDsvpBjheKeIGi9SFh5Of0LSkz5rGJsM8Jwf2T5phV5hGRMry/PM8RwxeQ5U+KHhJhSCvs/y/ZaD+yzqQ9WA4DkO1HuqdypC+ECwpTNuokjWj7bIKHXb2R2aX2lDz7tBuYUUrDdSf1cD2TE7UfsM0TW1bWwbD4ykwRjllHQzApBrQ3mqWBYXQXKmPeGJhKDEQMXg79B1I/0VgnddT/828P46qx+QAACAASURBVBFlzxTA1mob8oBwJIXJaVuXoIVilTRkdEkWiGkXStmmVtiv2ZhdHzlYR3LQQMppd4LCH3l275QX3btNLmh2lHDdezDghPqPpGGoNJH+z5m6JmXB9HoZ3C0W9A+D1SAS3tI7EYOXmF+9NLhDuieAuQB7v09D1dvl6LR3+jVmpBXg3yOg6Fp1oIAlwfwAWOClZ6RKSJY0o/XIwKZ8lF+kR19fH9rVLmgvKKHcJkfbGwpoCtTM/THIvdBVroHplVzOiB8pyIbyPfoYKACecXY2LGcaYJLp/GzNkfJmKN+LGLxEhFljRtnT+UGtDp4Apuv0e+JRMiEXtek1zMaMpnL0QVGXrMhRcNtA0U7pgcAa6DkN6CSrW3Dt8lWvPS+E0EVR3RuLGqA9oUHL0kavGbDWhU3QnGgDRX5kSeFOpxutx4thnZgZlbNPNCAmF0eKYONcWQ5jcgvn0+FLqxA+jFSaqMBLRLrsLjS/fQ25f0gLuiDTE8Rkfsr+ZTKqV1XAprANucJPUtNuskPzqRrS5aHDpbKATNJbursVjhZH0GlmriyDHeY8IxS7vvE7CDAjSP4X8nVSqJIVoGXtvgdNJLilNhjWFMI0IfJp5nABzO23QU7lW0vhrNJy+9vFMmh5vkUNXsqIGtDQrEf5zEJk3sueqfIEL39NqgSBvulUw7DMwBAYbK1WKHZI0bqA4h9Uh/UjVYIGdM0nm+B2ub0kJunBnUY3Gk7UQ75GAgo/JdTqQT2C9HUJNwZgqSe0/ZejQAfr9BzOq4t8HsIFpJD0FCnI+GQq2k+1wqm1xeQO8jxQWechAS+fMUVKUV6QI/cvaSEtETyA6Uz+swR8Y01kOyHy5Qc6d3V0wZph4ZaIR2IbJmcf5VYZzIUmUAR2ZYEC6oMqtC5tDukoHuiDIa8w6bIWyE5J0eXwd8Ahydeut8N84BosE4QvaAwFWlrwSKGqHIuLYYpv5qadA/Et1p8PKXj5ytL+wSVL8pH1i6SADi+e4KVrUiUyHkiAZF8zKMDccBwOjQNtR5QRDegIhM1xDWhZ1QhagiRUygYCL/+8aX49FOukcF1zekl2vv4EYluFGtZ5hVGZ1Ug1MD+dAcfqKtiK2obc6sPTO5LnYQEvVeDG9eswVxiRNy4dFNTZF6yB7imaee5fU6HL0DAXRAZjDnXBVqOVC2eqvCRn2pa5GagqEyQbI5eaPPCiPTfOr4VshQSKw3K4JGzw8vWlACamC02wTaN4CMImICgdebfZpmdDf7iK8zWI1PGbpyOWzsMGXr6S7dZ2SI43I+dPtNVV4MB8nmAmKZz5YCLKFxTB3BJ8BockE/kPWOpMaNhQg8L/zuICSdO+FBSSylJvYkoZp8UJ7SU1JMuHTooKATNnklvUDOmGVui/1EInEW6Goo/T1KqFZXsFLI+RKsHWhbnlRY+lQ78gF53JCjh0/r4cfPuM5vOwg5eYQwDTNmlQNr8QNGHhCdRg19yCyD+lovV4k9+CSMqXZu1q02pQ/Wo5sh5K8tOzaUCY87tUVL5TBrfDewaNaKKfqlYJ9X4lyJQlBHyRpiFLAw3q1HuUUGepQatFeBrCARC9QwPRtrRGOBYUcdPMNLM28EvmAn44t12FPKsevd3evg/hlDMa0o4IeHlG0C5C0kutKPxXVtBQUb6ApgFd0ZRs6Mo03Boru84O1QUFch9P55ask6T2fcfzntSWgnGZ0OfomBuikK9vW6oKsg2tEU0zBwM0DRDlqyVoO6yAtcbCfYQEwGgPyqOz3Q1HiRrKY2WQ7i2E9tNadCpt6OvtZerP0ZYZa++PKHj5yrtsLjS9XoucBwMvv/EEH10TQLN+lYTy54pQ8LdMbqefUKD1zYNsy4Wv5qDDOCD1eHroTGBwmV3QnGyDbHHwzaqDgZX/j+IHty5rguFzHVw615BPyHjSfrtefyvgJWZT16csVqB8aiEy7hU+oCNVwBeU4dxn3pOA4v/Jga2SHYaUZujaKlSQb5Oi5bVG1M67JlidIH2W3lG9IYcxSw+yuojH8HHgWwMvXyWKFVZ/tBoFf84UPEMXDlj5tKQ/5/8pA41xNTBVBV/XRrTRVK/0bOuAs8+8wZW6vGT1PHNTysuaIH1LAm2pJib9AHh+f5fO3zp4iZk0inaZXKh4tQjZDyZHJVl5sNKZs1rcn4jCf2aj4UgNV0Y4HmKUttvYDek7rX5+wyRlyRtNvlYC2WkpnGpnxEFWvkuAGsm6xAR4+QpTl92a3Dywe2UYtmFPwNI1qRakHxfPzIU+UYt2i79LIl+mkDO3krlADuUhOVpWN6JlZSPke6RQp7XBqvXeXUhIfmKaoeFATIGXqkQDpy5XF6p3VSL3P4Q7+xBo0+++gtw/pqFu9TVIiyTcIGkoRvY8XSSJezt70ePu4VSDocp7aJry9ssl5sDLNwEtuFRVK1Exu5jbHd5XuvL3NPGRfn88isfk4irZc9XuIQUtT494jj0OxCx4iVUk2WhPL8WXUhT8Id1rWTpnOrsvCSWP5cKYaWCuVog9dosUDSUHYhq8fEUJxHaVDdIjrah5uRyVM4vRvKUOyiK5OEjimXQbnkcFeG/DdhGrLIADIngFMElMEpscEMEbm+0iUiWAAyJ4BTBJTBKbHBDBG5vtIlIlgAMieAUwSUwSmxwQwRub7SJSJYADIngFMElMEpscEMEbm+0iUiWAAxGDl2a9yKGc4tlSbC760TU9ixWHFaKD3C3pFys0CWiTIU/iyQfixXflCAu8xAR3uxtXS2qQeCoHH265hANxZ/D23A+wZ+4HOLT4LD7a8iXiP07F1ZJadLi8Fz2OBNN6enrRWi9FxpUcJH2Yg8/eScJne5Jx5UQm96y1XobuYQq3OhL1E1oG+YQQHzLjc5F4JhcX3k3GuT1JuHw4AwnnUlGcXQ6dSj+qP2pB4L1+/QYkDXKc2v4lXvuvbZjx05WYctdiPHVnHJ66c4HHma4XYMoPlnJp5v9pK86+GY82iZaTfkIZz6crSC/BthmHsPWZA16/t14+AXeHd6wvXZsBXxxKx7J/vYmZ/74K0360HJPvWoKJ31vI/SbftZh7Rv8t+ccb+HxfCvQqI18U83zpcBq2TPcum6Nl+gGc3HCB62WYL4b5kMI7HVh0GlunH/SqJ5W187mjaHcJ292yq7ML9WXN+GDzRSz6+w4fPizi+DDp+4sw5QdL8My/rcDsn6/BmsffQvzxLKgVWsH1uZrbhG3T/duF6N3z6klmvIwwWcIlJ8/CU69fwpZp/m3wxnPHgoc4JUmrV5uwbfZJPHvPmm+AOgDQAdCGvn76zjjMuX8tPtpxkfMQC6cSX55K4D4E37Kef3AdF+CP8iIH9gsHk/D8L9aByvJNG+j+6TsX4oUH1uOrE+kBGy0voQRT7lrGzHPaT5bD0Bbdvsc8LyQ1Cg5QvrROvHMh3nrpeMgPn1SBhvJWrBz3Fmb828qw+EBlEt+eu38dDi35GM5vluTztLHOOqUR037M5sukOxehIF7Y1l+svD2fOe0uvPjLDX78J3rj/rYjMHgJ9fEnsjH3VxtBDe3L2HDvJ31vETY8uh9aqfB4ZF+eTmSC94VfDYDXbnVg13PHOAkbLj18epJCh5Z+zIwL4W7vxNxf+zOP3iWevLfybNTdLgmI/XEfMQE3/SfL0HpV5tmeftdWow2HFn2CqT9awsyDr6eQM9Vp7q83cR90sOVSRPPBRR8HKC8OKx85hN4hCEKdca6IiT0Cb9KHuWzwut2dOLb2HCZ9j1QDYdJ1UIUIlj4OL/16E6R1SkGNHgy81GhvvXiCWTkhNHumoXp+ujueKeGuvJcVsAz6sC1G9ipkP5QFeGDQmvD8g+uZfF41Zg/cHYFVhtY6Keb/cVtA+jzrGM71pDsXY/+Cj+FytAegGlA0qzHj31cw6Z517xooWtoCvivkD9q3bd34d5j5z/31RtiNdn/wdnd34935H2Di9xYxXyQmEPKf+ckKvPDL9Vj49x1YO+FdrHnkHbz6x8147oF1zC7Qk3mv/HYL9MrQXW4g8M79zQace5MtlT3LEfZBDXxsM3+6EnkpxX4flV5rxNxfsaXvpLsWoTjxmpC2YKYhCZb/RQUmceMH749+4p2LcG7/V370UEakJlzNasRzD7BB782DgXypzcLhB7X/yrFvwWxg76xJevqaR9ngIgn+xYEUZp2FPmyulWAWU1WNw9svnwRpBl4DNjJ3fbDtAmhww2IAVX72fWtweOknqMyvhklvAVWCgtf1913nBlEapQ55X5Vh69RDmPYjtl5EjFz6rzdgMwffLzcQeKf9dClm3bfKi0bKc+bPVmL1+Lfx/trzuHQwDQnvZ+PsrnjsmHUUz963KugHSfVdPX4P3G5vSUemv50vHg8o3bbOOMSU2EIaifLe/sxhr3rwfJ9z/xoY2/yBQ4Avz7uKuQ9tYr7Hvz/p+4sx677V2PD0Xm5wSVaGxPdzce7tROx97SPM++MWTPvx8qB50GB32/QjASVw6tn8gDxd+N+vc7uOCuGDbxqqIw2on/6e/xiG6lWafpV7xQu8+V+VY3ogRfz7i7F1ymE0VDXjxo3gdlMqnHSepHPpoMEVz1DPM33ZZIkIdgQCr2c+dE1Mfuflj1BT1oC+vn4OTEQD/yNJpVHocHD5mYADDcqH1Ifcr/y3ar2WW4+pP1zCrMez96ziTFLB6hHoP1mTEjPv9v4I+brtm3eas537vtsm1+C1P25n0kLvktSb/4dtuPhuCldnqjv9eF7Qme473V0oyijDm3PeD86T7y/GyTWfMwNPO2wuvPanbUxaqGcuzGzxJV/QfXd3D5b8cyczX7ImdX6zofgt8NotDsT95XXmCySJj644y0lWqrzQg5hUkVMTUKeb8/M1kDbJA2YnBLwzfraCszn39oSOz0XRJEnRp3d4kHieSXqTHt3ff92LJtI71wTQv8j0dO7tBO6D9nopxA3x5vw76SBJ4kkDXU//yXLkJBX6qQxUxzdmvx9goLQAU364FHsWnITFIHyrBMoz+3IxXv3PLQHznfrDpci+VOJHD/UcJ7Zc4ISHbx2Il4eWnmeCPgRrUJZ3FdN/4t9GJKTOvXPllnWIAy8B8rO3kwIQsRC7Zh3j1INQhbL+p0ZKOJuGqQwVgip4YsN5Tn9hvRsKvKRzJp/KDavbJoaf3v5lwIZa8vddcDqcXuQQfz49cimgVWPRf+8EDXLDOchOvXrsHj/gEghe+/N2dLm7/bKrygvcA1BP9ulb8cytuPwy8nlA9VM0q7jBny8I+ftFf38Ddpu/mtdSJ8OMn61k1uP5X66D3ezNS5+i/W5Jlz265hMmFp+9exVkzYpb73DgtRpsePZedve16K870SHQSH4rV58LGjlunLifWcFX/nMznDZ2TK/g4I3Drmffj6ixtCodnvsFW5157oG10Ov8zXlGjQnP/WItsw404CpJHdDDfKoe8LaupBWTf+AvdemD/uJgqt97XZ3deO3P7C6aVIU3nj+Kri5/wPtlFOABAbixSsJNXPCA9TyT1CM91PcgFXLX7GNMvtAHdeXDdN9Xgt677B2YH0AV2Tn7Pa8ejgNv6me5zO6LRrxpp/L9uougpTP+JMZkXSxijqpJzyxOYe8wGQy8JMnrSiPTqYied+d9wJS+0368FMpGrV8tqAc5svxT5oidALd7Lqkb/X7vsR5QXu8uPMkcBJKZSd6i9HutKKUSU+5aygTJvN9vZUpqv0wEPLh8LA2kCnkCl79+8Vcb/AZvxMui5CpOZeHTeZ43Pn0grF674EoFky+kupb44IQD79svfsAkdu5vN6Gnq1dAlUMnoQaZc5+/5KIP5OT688wPJBh41z+2L+wZO08qS1OrmeCdfNci1Bb4fxTUSOSv8cxP2V0kNSxLYnuWyV/bLDbM/z1LisZh/ZPvMsOh7l9whtlGxL+LRxOZ/OPLC+dMEzNxf2YPlkj3vZrb7Jed0+YE9aCeoOWvn713NXQy/57MLxOAUx9fn3mUCd6Xf7sZVrPN67U7+vqu44WH2PbCE2s/90oczY3T4cLL/8k272x4cj/z6wwE3qe/txCfvPHVLcU9Ero0EgOm/thfkk3+ARu8VAZ13cv+dxezkahbvXw0QxCISpPrmObISd9biIqMGr/q9Pb04aXfbGSWO/OelbCFqVf6FeDx4OubX+PYxk9BU9M8AD3PJzd84ZF68PKzfQlM0JFK89G2S4L4YjQYuUksz/LomvJ4b92nfmObO9pa9EwJRADJ+bxikLoor8i5Z+nD9EX72+7i/rwDdpvDr4RA4CX7cfrlbEEM8cv0mwcOk5NppgoGXpK+6ecKmYMJYvKCv2wP2RvcuH4D6x7fy+T54r+/wQyi0lItCwimt54/GRUfWPxpqpQEVB2W/nOXH4goD7JwkH+EL/Do/uXfboTLZ1sFVrk550uZvH3mZyugb/OX3nfkfVEB6np8CyU9bsuUw9i/8BT2Lzwd9W/fwlOY8yDbuefFB9fDqPefcQsE3md/tgq1FfWs+gt+Fgl4KXNyFqEuzJdfdD/9x8tRX+nfrXoSJWtQct5tvu9zEmrrRSYQE05nYuKdrMHdQiQez/HMfkiuyVYeaHA69SdL0c4AIlkJdsw6wvwop/5wGSrz/XsUT2JpvEATVyzhtnXyYWbM4zvIz5MFXl/mDuf9jJ+ugE4WBng5k4n/oMaTGaGuIwUvDbb2zyNHmkDd6sWgRX9xKJX5LjkuyRv9/QFI2n+w8zNmG9Eg5mpWbdDyIv1z9Ti2GY+EmqpFw8y2IqcWEwP4wxyI+4T5YfIZNV2TYOoP/Wf8yEst8UwW89073lt5jsnM4QSrb96BRviBJC/pedo2PV/viM6RgpcKa7kmB9mYfetB92RydFjZDi03b36N5f+7m/keTcMSUH0PenZ81XlmG5HFpaY8uh7Itzz+nqQdq34k6JqqJHwyrzPZ0MmZiPXe9J8uh1nvPeDyfPnCnhRmHZ97YA3cTvaihjvI/BNIirCIGI5nE+9ahJaqQeMzX6mA4L13BfSa4I7kfB6BztGAl/LcPPEgs5FIUsR/mMkEYm1xE5PXJEGLk9nmQgLveysvMN8j3b92mMC7feoRZv0IvA3l/tYYns8JJ7NBvYgvTogvF48mM/lCvjFL/oc9ED619TKftd/5jvN7kphdEhVO9j4ywA/3b/IPlqC5yn+aOJbBm32xlGkbJ75tfuqgn45G/rF7Xma7cD7/i/Wg6XnWQcL4xNZ0ZhsR3yryI/dqY5XHP1v76Lt+AKS6kdqgbFbzyfzOJq0FNMDyBS/dr39svx9fKIOK7Bom4Mk/oqEq8IdyR9a5UuZggJbyXD6ajtLUa8P+K0+rQTuja4hl8NrNDsz6+WpmI03/t2VQSbz1wnZnO17+jy1+6Tkz0KpzTInEI+PS+ykgH1tfQJBFKPV0Pp9syM7U/c8NYJqb/KNFcFjYM6JEAPUUx1Z9xhy4kXO9usV7AojK2s191L5WqDgs++cbTBMqX9E7pNdUzC6JurKK7GscMUTQcP94gjzPsQxe4seZ7V8xG4lspPuXnvIyKRUnVmEiY+Zq5t0rIW30V5k8+VBTxFY3CMyHFn/imXRIrhVNGqYdmsojcyCZPYMd8mYVyA/B92MjvhxY8pEXX9wuN15lfNRkN0/7uCDoR31HT2cvZjH9GuJwcV9aMBqH/b9YBi9VXqW0YM7P/WcNqdFoxYjZMLDKgtbZbX6KfDt8pcsCbHxyf0ifBJr1mnU/W8q/8NC6IZsapjrRR/npO1eYagrV6/CST0O2e09PD9Y9yXZUf+mhQb5QRqUp15i23Vf+YwtMBlPQsrjp4UCDj0AG6aA5DuGfsQ5ect7fFMDhiHquwoQqDgzk9jmbNTX+vcW4fEKYgNg1630/SUZgInUi4/PgEiqcJqHFBSv+9212WXctRmlStaDsMs8XMj8AbnCaNODERBJ8y9SDfr0XqVL75p8K6G3IE8CBl7zsSX/yF/OLkPW5vx8n//Jwn2MdvFT/3MulTLWLeLlt+mFuCvur97Iw8fv+/CV/CMs30jkUL9PO52Eyw/eXylk3YW/IrjxU/vz/nJPND9iO97SKxqTzt8fz73qeaTJnwZ/Z/uE7Zx3jPmqFpI3Zc5GBoDK3zjM75jUHXnmTKuCSECLAavL342TmFuRhZ2cX9i78EPmflwr2vhoN4G1vb8fCv7EdWWiVRHO1FMsfftNPMHADtRWfCeYFWSPmPMBWUSivzw8kh5RUQZqHA5O+zYiXf8v2PyErw8GlZ4Jl4fUfDcQ+fP0iUyWg1SfkqJV6uoA5Db3i4beYq7m9CgAG1rDRrNHuueSi56+TkZ62atyekOvNfDP2vO/q6sKhZR9z651oqnDva6dAjjqhjtEAXuLd2d1XmIMxMjVumnQAU37kL8me+beVKMu9yoEmFB/4/9M+zWc2Nknf6T9egdyLpRED2Glrx+an/btwvjem+AladXgTQ7JmJQiofB78mVaPXNibhI1P+/t4k1px6XCq16COr7/vmZO89FDeqgLZG/kCPM/kVLxl8kEopW2CMuULIeXfbnXizZff92pc+khWjHkLzddkQT3DRgN4Od4FaCRPHvpeLxuzK2xHem450iNkf2UJmQWYde9qXDiQiE53p+CPgiSktF6JTU8eYEpJopvUlTNvXgraVnybe545M9jcE0xM0QB08o/8zX8UxUcp8Z8m98yXv74FXiro9A5aHuOvm1EFCHAv/8cmXHovBVZT4Gk+PmNy1CjNrsTKMW8z86T8XvjlBlSk1gRk9GgBL0nft15iN5IvaOmezEC0li7cg4RBTXkDnn+A7b1FedPs1rapR5CXVBwy7FKbXI1Pd8VzawzZve5Au29+ej/I4hHuQfQWp1VhOmMJGIsv9GzPXOFecrfAS4S1u9rx+tTDzMEbXxhFmHnx1+txYsMFVGU2crqLUWeCzeKAUWeGvEWFkoRqvDHnGBevLJCUoPwW/Hk7FK2qUQ9eaqSy9NqAS/153vFnch1Uy72N9UKBQR9KxtlCzPyZf3fM509n8nBb+PfXuXYiz8Ha/BY0l0tRmVHPfTi75x4HLa+nD8nzPd9rWk9H+inVMZLDRQO3/2I53nvHqaByp/5oKSqzQg/UeDq8wEsPaXC27B+7Aui/3gUSkGffs5aToC/9ZhMXV2r2vWu9VARfZvD3FFusqaaVp4N5Hi2Sl4in6DLz/sB2leTrTGfq2XbOOBJ2F+zJIOolEz/IxTM/Zk/DepY3UGYcaBUExRejkbzv/4HuX/jVBrQ2BA835UlXoOtLR9iedL7l0mDRYRW+YNMPvPSFaeQGrJuwj9nd+xYY7j013tL/tyvkrBIxYjSBl+j9/GBySJ7RgKShnO2VFajxWc/JqT3/UuU3pia2Dhxu2/Dpyflm7SN7oZIE9mFg0RTomc3kwAsBQlrxZRIuPtr2RVgS3g+8PAG0dm3PKye/WT8/FMyJw9QfL8O++WcCrhbmy+bPow28DrOLi4jJNwjrvOL/3uYiDPF1jPbcXC0BOdGE6v5ZtPg/i8MzP12BQytPRxzthlUf+tB2zGY7qvM0zPz3FTDrw4v7FhC8RAS5qjWXSbB2wl4unitfUDhnGghQLNhV499CTWFzWKacS6fZIU5nDqdL5F2LUZsffDUEq4E4flEjPUsLCNkfO0m0z99NDUu6BCrL83lPdy8yzhdxS+Mp8Eg47UNpid5n/30Vtk47BFmtKiqVxpMuz2tyBw00yUI07Hz2uNeyds93A10HBS//Ek0ZVuc34OjKc5j/h60cGMnrjExonowiJpBtk/QrAmzcX7bj+LoLuFpQx5lv+PyEnlMuZnGhjV7+3Sbwv1d+twmL/99OLk6a0HxY6dqtHVzQjyX/vQOev2X/eBMtDPdMVh6sZ1W5dVj6P7u88hzIfydW/vMtUGzb4TrILJnzVTF2v3Acsx9YzQ3a+ADbg+0Ux0npqT/g2+h1fLj5C9SXN4Oiyg/XQfEdaCZwkI7B8ROtvsj83D/IYShaBIGXMiFdmEa6HU43qkvq8OWZJHzyRjyOrTzPzUNTSP8T6y5yel/ShQw01UjQ3dnNvRPpSJV8BzrbO/1/HV1h2ZtZTCCayGGGehfvX3R7alC+3vkN5k/dZ6S8YNWB9Yzyp3aiaeeizHJ8cTwZH2z6AoeXnsW780/h/VXn8embV5B8NhN1FY2cekArhoebLqJ1wxP7mOB98dcb/CLds+rm+0wweH1fpHtiEo18afEc2XXpeiSYwKJFfMbmAA9mah9+wxtqt5E+GiskTDdL6q0/3Z0YETlRgTeiEsWXbjsO0Meyd8EppiWG9jdprYvMHCeC97aD0shXmGLdUUBxX32XpO7S/9vFDOUqhEoRvEK4JKaJigN5X5YxLTCTvr8Q2Z/5x0MWWpgIXqGcEtNFxAEy49H2AL5Sl+4pXptv/LFwChHBGw63xLRhcYAGi7UVDcz4vTSjdmDh2ahsyiJ4w2oOMXE4HKCB2sFF7OiW5IRTH2GIWp4GEbw8J8TzkHKAgJuXWBJwC4UtEw+FDEoYiiARvKE4JP7P5ACpBGQ79p3goOdk7y9ILONcLlm6Lq2mSfwsPeo5ARG8zKYRH4bigM1qx/bJR7lo8YkfZ6IwuYID7JfHUrF9+lFM+wl7GzMC8+K/7YzIud2XJhG8vhwR7wVxQKPWcnvycf4sdy7mluDTMnyKScaStvwz8rVIPz80UX5E8ApqKjGRLwdaqpTcfsc8KIWcCei0ayZFmB+KQwTvUHDxNsyDtp0lMAoB7UCaOCz6+46oo3t6sloEryc3xGvBHDizgx2njQVm8mOmKDytDdKoB2meBIrg9eSGeC2YA4cXf/LNItA4zuFmQAqTJKb7gR8teZr3+23cftY2S/SBa3yJE8HryxHxXhAHKIaEplWP/IsV+Pj1K3jrhRPYPOkA93v31Y9w6UAGmkploG27PqjP8wAAAORJREFUhssFUwSvoKYSE8UiB0TwxmKriDQJ4oAIXkFsEhPFIgdE8MZiq4g0CeKACF5BbBITxSIHRPDGYquINAnigAheQWwSE8UiB0TwxmKriDQJ4oAIXkFsEhPFIgdE8MZiq4g0CeKACF5BbBITxSIHRPDGYquINAnigAheQWwSE8UiB0TwxmKriDQJ4oAIXkFsEhPFIgdE8MZiq4g0CeKACF5BbBITxSIHRPDGYquINAnigAheQWwSE8UiB0TwxmKriDQJ4oAIXkFsEhPFIgdE8MZiq4g0CeKACF5BbBITxSIH/j/c+0vf9dQPMQAAAABJRU5ErkJggg==;" parent="1" vertex="1">
          <mxGeometry x="180" y="120" width="100" height="120" as="geometry" />
        </mxCell>
        <mxCell id="j6Cg3OJ-4-FY4ZUoHzWM-4" value="" style="rounded=1;whiteSpace=wrap;html=1;shadow=1;" parent="1" vertex="1">
          <mxGeometry x="845" y="100" width="120" height="160" as="geometry" />
        </mxCell>
        <mxCell id="j6Cg3OJ-4-FY4ZUoHzWM-5" value="" style="shape=image;verticalLabelPosition=bottom;labelBackgroundColor=#ffffff;verticalAlign=top;aspect=fixed;imageAspect=0;image=data:image/png,iVBORw0KGgoAAAANSUhEUgAAAK8AAADSCAYAAAA8LpBqAAAgAElEQVR4Ae19h59URba//4C7bnq7z7C67rq7b9+Gt+m93+6+J0ExkgUBAwaQIeecBBFFySACKqCIICIyOeccYHLqPJ1zmOnJgN/f59zxMh2qu293z4w9cu/n058bum7VqVPfe+rUqVOn7oB4iBwYpRy4Y5TSLZItcgAieEUQjFoOiOAdtU0nEi6CV8TAqOWACN5R23Qi4SJ4RQyMWg6I4B21TScSLoJXxMCo5YAI3lHbdCLhInhFDIxaDojgHbVNJxIuglfEwKjlgAjeUdt0IuEieEUMjFoOiOAdBU339ddfo6+rF5ZSFfRbS2Cfkwf94ykwTkyDc14RDIevotPgws2bN0dBbYaORBG8Q8fLYcmpw+qC4asm2JaWwDguCbqHE6B++IrXzzAmCcZpmej6vBTdnV3DQkcsZiqCNwZb5Xr/dTjkFpg/rIN+RgZM41OgeTjeC7C+AKZ786OpMK0sRHu9ETdu3IjBmg0tSSJ4h5afUeV288YNdDSZod9YBNvEbOjG+EtZFmg9nxHILU9mQHWgFL3ubpDK8V09RPDGQMv2d/WiLaEe9mWlMIxPhm5MYkgp6wlY1rVxbDLsrxTCnqvG1ze/mwAWwfstgZcGV3aNBe2X5LDMyoFlTGrUgGWB2DwuBc5d1XCoLN9STYevWBG8w8dbZs493d3oldlh2lkB65MZ0A+BlGWB1vOZ9uEEWCZnwna+GW5XB5Ou0fhQBO8ItNrNGzfR2e6GLqkJ9lVlMD+RBn0E+qwnICO5NoxLgnNZGWzlaly/fn0Eaj68RYjgHUb+0mDJojTAdrYJ1pfzYRwnzGoQCTCFvqN9OB6GR5PhPFwPu350qxIieIcBvH3dvdDVKWF6pwrmKZkwjk8eFn1WKGBZ6Qxjk2CYkwVrugy9XT3DwIXhz1IE7xDxmKTs9b5+WHIVMC8shPWJDJCUYwFnKJ7pxybC+mh61DqzcXwKLGtKYVYaR51ZTQRvlOAl0HaZ2qE6XQnbvCIYxyWDBkhDAVDfPDQPX4FpbAqsz+ZA/0E1zI0aGN6/BtPjaVF9KLqHE2GZkgXzR/Xo7+qLkiMj97oI3gh5TVLW2KSB62gjTE+lc6DyBdtQ3dNkhWlCKpwLSmC41Ihud7cX1c5GIyxxhTA9khLVR2MakwzbqwXQVyhwYxQM6ETwesEg+A3ZZjs7OtFdYoRhcT5sj2dBO2b4VAMCrX1iNto25qO9zoz+nr6AXTv9Z02QwjojJ6KZOc8PzfpYOmxvVMFutsa0s48I3uB45f4ls5LLYIfuk1o4Xiv+ZhZsGFWDR1JgejYbzo+aYWzWCDZrkQpjU5th2lMJyxMZgvwhPEHrec19OLPzob/YgL6unoAfjQD2DVsSEbxBWEu+BupaOTQHKmB+JhOmscNnNSC9k6wStiUlaDpfBre1gwMMATKcg9LfuH4DbYXNsC8ohuHhpOhUiUdSYFtdCnWVNOaksAheBjK6XG7YS9UwbyzlZsF0Y6P3NfCUavw1DcDIj8E6OQuOrRVwlmvR1dk1JFKOQNzZ4Ybpw1rYpuVENYgkZx/rxEwY368GuWjGyiGC95uWoMbu6+yF4VIDZ/80PZoaVbfLAzTQ2TQuBeaJGXC83wiDSovr/f3DggnS0/VKDWxrymAeF53/hG5sAiyzcmErbgPNGn7bhwheAG6tA6bD12CbnQfyxhLiOxsIlMGek92XVA97XDHa45XoNLmGRMoKAdH13n7ok5phfz4fhij8KYg35gmpMG4rQ0ebTUjRw5bmtgevuUwJy9MZoNUIwYAXzX/kfGN9OhP29eWwFCq/VRfFdqsTlj1XYXos8p6ljdSdhxNgnpQJV4Ia3R3fzuqN2xq8/e4emGdmDQtoSZ81jE+CdVo2tIcq0KPvwI3+2HCGoS7fVqeDbWExDOOiG4TSKg/Tq/lwN5oFW0WGShTf1uBVf1UHy9jo9EBfiTzQrabBMr8Azng5HDrriKkG4YKCBqauL6UwTc9ENINSUofMT6VDsbcY7hFUhW5r8LYcKQDNKvkCMJJ7Ug0Mj6XAubkSrVk1IB0zXDNXuOAbivREo1mmh2NXNYyPkL7vvbgzHF4YxybB/FwOHJlS9Pb0DgV5QfO4zcFbGBV4ScqSxLI9mwvT3qtwS6zo7R3+RgvaohH+SWCz56pge6kQ+rHR6f/mCWkwbiqBvcUwrLbh2xu8RyMDL0kny/g0GJ7JgP2yBDZLbE+jhoPndruLM9+Zx0enTtG0uXViBjQfVHEul8PRC93W4JV/XAHzWOHOLJxqMD4Jzo1VsOWpuNW54QBjNKV11hngWFUOskeHozr4piW/YefCUtjL1ENe/dsbvJ9UCgavbkIydDtK4GwyDHkjxGqGFD9Cc74Gthk5UfsN09jCdaCO8xEZqvre1uBVfnZVEHhJt7W8lMdNtw4V40dLPtTdd5rbod1VCuvj5OwT+YBOOyYR9qk5sCfIhmRAd1uDV5PQIMhUxpm/XspFV2fnLcxRo3Z3d6O/b3imdW8VFCMX/X19cJfpYJ5XAFp94aseCL0n8BsfTYFiRwGud0Rn9769wRsvHLymOdno8XACJ68v3T4NlB8oYFabR4VZLNrvgJPCLjdaTxTDMjGTGTdNKIhpGr5tfxn6o/DpuK3Bq09vgVXAJAVJC9PMLFzvGFwi49A5IF8iQeP8OsjXS6BIk/utcIgWLLH6PsVB61TYYFxbxK3woJ5JKGg905FjUldbe8TVvG3AS1KDfp6HqUAO69i0kIy/BV734CrbdnM7ZEtaUTevmvu1LmyC7A0J3Dr3t+q74Fm/4b7u6emBNLMWlukDcdXI58ETnKGuyXpjP9scMZm3BXj7uvugKVJDn6HzYpQpTyYIvNQIhslp6LMPOqC0m9o5ycuDl84N82shXdEC+TkZejoGge5V6HfshgRCh8EB04FrsDyWHtZCUAKv8a2KiDnynQUvMdVpckKTpYZimxSKhRJIDrd6McpaoRa8OsI4KQ39tkHwdlg70LKo8Zbk9QRx82sNkG2UQFEuH7Uzbl6MEnBD/LZVamCbXwStwGhABF7dpiIBubOTfOfAS9OzFqUZ2rNqyFdL0fRaPQew+nk1aDnQ5MUF+zUNjAJdIQ0TU73A2+noRP2CWiZ4eSBLl7RAeUSBdn37sE6TelXqW76hgCvmDaWCVm4QeLXrCyOm+DsBXlot0NPZA22pBpJ9zZCtbL0FWh5IBN7mvY1ejLJf0wr249U+msS5NfIZDIC3Jih4qWxuQLdOgpZLzehsHzS18fl8F8+2AzWCVjDf9uC1GW1QJMqhelOBlrhGTu/kAet5JvA27Kr1wkq7xCK4i9OOT0C3bnBk3N3ejcbFdSHBy9NAtLW9o4SxbvRFpvFimoAb275qQeAlh3briiK/gbSAIrgko1Ly9vf2w66wQ/O5Gs2rGjnQEjh5oLDOLPB2yKyCl/wQeLs0g4sPe929aFpej1DletJCaSXLmtH2qRJOg1NoG426dI6TjYLBa7kdwEsDAlrSbam3QLKnGYoV0oBS1hMwntet25q8vnK3XDh4NWPi0d5ivgWkvq4+NK9q4NQCzzKEXJMqIV3fCk2+GuQ/QHX7Lh3OMy2CwWtaXBDxeGBUSN5uVzf0aTq07Vag4bXaiABDoJJsa/WywfaY3dCOF7asncDb0eodEtShdcBwWgey8YYjgYkWSt+ysBHqoyrYlfbvEnbhPC0MvNyC1FfyuA84EgbELHhpEGZSmmC4okPrqia0LmgKqhYIkXiyrRKvJds95g7B4NWOTQC5CfoeNNukLdFAvl0CMpEJocMzDdmGCcSWTDPcLrdv9qPyvuMrhSDJOwDe3O8WeCnwhvoTFeTLJWGrBp7A8L1uWd+EHo9YtDTpoH1EmOSlkKJkx2Qd1O13tXdB8YUc0hWtaJgX3ITmSxfdN8c1QLZNwqlFo93ZRyh4aVrZ8EI2t2SKxddQz2JO8n598yZ0Z1VoWRi9pOVBws18LWmBZF8LaLDHHzd6+qF7XNgaNloaY6tig5fPj3oLq8IK1UE5JIuaI5LCrYuboP1IDbPGHLEuyNPzbZ07EpSCnHYIvLoZ6dzunpHQGnPgJYcXyeLwG54HqueZJihodK87oUFLcQt6u3u9BkfhgJe8oEyFipA8JilM5VQnVkO+SYqm+QOTJJ50hbqmd+QbpGhLVY1Kl0t3lkbQJMV3Drzaeg2Ui2VhSy0eEDQQalpQD8UmKRo+qkOnrpObomWN6G/2XYd+YmjHHPJtIPAac6QhwcsnoPI6zZ2QnmyFdHkr6sNUJfgBXdt+BfRNOi9dnS8jVs+dAsFLfNVPSfNyNQ2nTjEneQ3NeqiWyiMCr3RRC2SbW2ErtMJmsYXsdr++cROmZzIFeUJxkjdXFg5vubSkv/bU9kC2WYLmBeEP6AjE8hVSqD8bkMKsjzBsoob5hc58HSiuWSivMk4oTE5Hd4Qzj7EH3qbwwEuqATnIaN9XQ1GmQG+X8KXnBF7jtAxBTLaMS4Um0Xt6ORwMdHd0Q3VZwXmdRTKgo3q27VRCW6zxMveFQ8NIpe2qMEI3TthA2Dg5Dd3tgw5P4dAYc+A1SYxQLJGGlLwkkRQbZNCd1sCpjnC26mtwQTKESAgOvAkN4fCWmdbZ5oRqr5z74KgOvLoj9Cxd1Azth2pYNJaQPQuTgBF42FVhEhyBxzwxHW7r4LR7OOTFHHgtCgtkiwedvAM1qupdBVxWV9QNaH4xT7DkVcdHD15qnOt916EuaoNyswyNrwn3j+B5UT+/hvOY06Vpo1pGEw5Qwknb02CD4RFhgUtoNUWkMX9jELzmkOAliaU+rBqSFaiWucLAS/EdFOeuhtOGQdOS7mo32jldVra8JewBHQGZJjeUSXIvC0rQQkfoz75WB4wThC3S5MBrGfQZCYfEmAOvU+8I6OR9S/LMq4FqnwK0DCXawxZXJEjyDoC3KtrivN4nAFPERuU1JdTvqCKaoZMubYFLG1njexEzhDe9rXbB4LU8lckFI4yk+NgDr8GJ5kXBR+UkeYcKvPaFxYLAS/ufyT6OfMlKsMYhENOsoiZRDdV6WVizijRtrkvWxpT07TZaub3hBI0lRiN4qcHIS6y9zYWb1wdDxLuMLkHgVe6Wo7trcD+yr29+DfIzoHzDOeyLhIGXTGUtx4vDyTrstDRDZ1AboDnWBsnCFkGDOZo91JxuC7veYRMXxgtqpVoweK0EXq23w5PQor4Vydvj7kHTFw24OrsEBf/IhLtj0CFFyPIakrzKN2Ve4LVIzah5oRLmWqPQunPpnGvKBUleDrwnhhe8POE3+m9AW6yFYrsMNDjj1SXWmf6PNfBqCLxPCJv8sT+ZCbPC3+GJ50Ww84iBl3Q7u8YO5YdS5P8zA1n3JCL57i+R818p6HEO6q6CwbtLhq6uQfugWWJC9v3JyPhFAmSHJZwlIljF+f+cayqEgXdMEpSHI18syJcXzllS2RpyqpwD74dtMWX7NWj0sEwUZj+PafD2dPdAV69F9YoK5P8uDan3fIWkuy/d+mX9PgldlkEQ0vKa+rgQ0mZeDWRbJOh0D64Jc6jtSL8/gcs37Z4rKPjfTBjydCF9A5zrKwWBl/as6Hh36KwNQkAsr5FBvkwSXPLOq0HbMVXUJkMh9AhNExZ4n8iCUaIVmrVXumGRvKS7dTo7Ib3ciopZRcj+TTJS7/YGLQ9gX/BSjIWGJbVBnbtJbZBtafUCr1PrQPoD8bc+CpLqGQ8moHZxGSzywB5azu1VgpYCEXjdeyMPkOHFdYE38ho5ZEuD27yJF23vK2MLvFoDt7eckAGb44ks6JvbBHLEO9mQg9eisqDuSDVKxuci494ETjXggco6Z/42EW5dxy2qaHmNEPBKNzZzK4b5F33By5eVds9XyPtLGqRnmtDdOTjAu/XeNmHgpZWutjevjujASFGn4HyaWbou/4wD75HYAq/ZYIJ9eo6gHu1bBy/5E+iv6dCwuRq5v09D+n1XbklAHkSBzum/ike7ctBOSf62zWsaQkpe6doWXO8cjDLYZe9E6v2By834eQJKns3nVmfwwKWzc9c1QZKXdqo07bo6ohJO06IWBF7NQVVMeZ0ReG0CwWt/LBOa+tCupp5txl9HJXnJNKVKUyL/6UzkPpSKlLsvCwYtD2YOvKrBuW2aOm3ZEHxNGEkbydpmXO8aBG+3owtpQcBL5WXdn4SSS94WA+c7tYJCFA2At2pEJa9Q8KoPKWMKvFaTBfYZuYIkr21CBrS1IwzeLmcXrr1QChocpdz9Zdig5cGb+vOvYGu28h8TN+/fuqEJDSFMRC0rGtHrGLRSEHhTHwgseam8zJ8nouCz/Ftl0YVzT41A8CbAvLks4vVWXoUKvNFJtZCvDD1gU++PLclrt9rhmJUvGLyakQQvDcjqNlUh4+6B0T0PxHDONKBK/3k8Ssblol01qDbQMiDpjuaQs0wtyxvRYxvUYfs6+5D116SAA0MevIW+4D1cLyjwiG5MAiwjDF6DwgDF6tAedpp3VdwEjcBvYtiThQNe8yOp6KoeDCkQDnERqQ20zKX0kbyIpC2pFnm/SUPps/nQ5Ws4/1vPWbEB8LaEDV7Ko0/Th/IXC5H5wIAN2fdjIr1X9bHCq+t3vCccvBSDi+IsjNQhGLx7Y0vyOu0OOJ8vFCR5OfBeG8EZNhqglY7LDwu8GffFI/uPKWh8vRaqOhWnHrBAQCCUvx161XDjojovKwWfF9HWeKkORWOykXavtxqRfl882k5JIwIvt8vj8qIh8WTjaQ11tmgtUKwJvSRK87aKm2oPld9I/e9yuuB8QaDD0yOp6K4eVBvDoTEiyUuRAEsfDS15OdXg3isoe6wAjcfq4dDaBc0EyfYNRBznzUGsc8PCWiZ4qfL0ATiNTtRsrUTWL5NuDSQJvOrT3uB1nm4GBRQJZZPkYgyMMHitOisUawSoDbvbRi14ae/jrmJ9OJi9lTYi8Pb39KPkiTwke8yU+XXRv0xAyYw8KBPkoFkz0pOFHrK9AsAbV4t2zaCVgpU3dfGqIgUqJhdyM3vp98ZDfqzFixbnxy2CwEsrXS1LirhNVFhlDcczm350gpd8VWwvCRuwEXi7i0YcvLkBwUsS9+pLpdwS8EgaVXlUHnKFAa0QtsscgrLv7OiE4pQEhb/LhGyfN3hdn7QKGrCRZNY/mgz14XL0dQ5aOQQREGEiWimiXB96MWrbDkVMSV4Cr1UgePXjktCVP4LgJVts8SQCb2ATWeWc4ohtj6rjSr/4ur6qA4HXIRcGXsIOqRKmJgOspd5rv9yX5KBdGkOpDfz/hrHJcLxaBGuuykt3jhCfQV9r58AbWudVbZfHFHg73W6YXxK2QoWiqHekRbY7ZkRqA3XHxVOCg7cqGvCeUIQEb/OCelibIhuleiKmM1EJcjTnwSn0TNuatr9dB1dbZIMNTxoCXbfb2iFbF9zOSx81B94RtIIEopd/Tn7WhleFTQ8TeN1pwSMR8fn6niMGb8kU0nkDS96qmSR5b/iWJ+hed04TMhIkxUAw1ZoE5Rcska1BC/ujwtz3fIGtfTgB5skZcFyUwN0+6JMcrLxw/ut0dXJT5XUhVhnLN0hG1IQXqg49HHiFzbBxkjdeFSpL5v8RgZd8c8vnFAYFb+Xkooi7Mu05tUDwhud4zuIA9SLW7RVR7a1rGJcEx7Ji0AYt168PnR2YwNuyhjZtCe4iGmvg7e3phXFBniCfERoId1wMP5gLtWXE4C2bHRy8FVOKIwav/nNtSPC2LGiEpiQyXckXxJ3WdtgXFEcFYDKlGSakwHmkHnbj0KgS3e5utGxoDOqkRGqDfH0raPVFrBwUJci4rFA4eL+QR0R6xOCteKn4lv3U10xG9xVPFkYMXmOCXhB41cVDA14azHUb2qHZUgTz42mCmO6rQvD3NPjTz8mCNVMOsodHc9CES+uW4E5KBF7Jqmbc6Ist8JoEgpfUhvaPJRGxKSLw0mLHq0vKg/oRlE8ojFgaCAZvYWROzIE4Rdtgucu0MM/IikoKE5CNjyTDuqYUFlXkG6hw4N0sALwrYwe8pFL2GNphfClH0A7xHHg/iszJPyLw0oTD1cXBwVsxoSBi8FKUcNq3wdc85nlPaoMsXXjUxkCAZT0nNUL/3lVYopTCuocTYZ2aBfPpevR3D+5bzCqT9YxMkrKdkpBqQ+uKJlzvHTpdm0VLqGfkHqvPk8KxpRKmJ4X3XgPgbQmVPfP/iMBL3Wzdxmqk3e3tO+CpPhT/X07EI2BLriW0Yw4H3sgUfU9OEEBcASK2OOr1sCwshGG8sADUvOrgezaOSYZtXgEMleFNJlBoAOmu1pAriJsW1aPfHf7H4cmHSK4JBx0WJzrS22B5rQCWsSlhq1w0VnAdrI+k+MgGbER0/bbhA681LzR4KdhGa2JkX6wnp1wGF4r/kQ1Nsoq51Wp/Tx+s8VLYZ+QInonzBe/AfTysj2XAvvsa7Gar1xS1Jz2e1wRe2Zuhwdu8uGFEwdvf1wdDmw7WI7WwTs2GcVyyIBWBxRcOvAdGGLx1O64GlbxF/8oO6Dnm2UCsa2eVI6TaIFnQjObL3tuxsvIK9YyWD9FqjqwHk1D1WilMLUY/YJGaZFUZYdpTBcsTGWFLF89GI79g+5x86C81+LmD+tJKQqJm97WQvVDTojr0uaIbHPqW7XtPtNAaQEuxEs6tVbBOyQKpRZ51i+R6ALx1vsUJuo9IbaCcS98pQsY9gZ3R8/+SETl4r4YGL+nEqv1ymFWROTLz3Ol2diP1oQH1h1Y45/5XKmQfNnPhl/g0dKbGI0mozG/iNoem1cSRNBb/jml8CmyrS6G+KvX7WDzLrXqzIuRsY+OCOnQaB8MAeL4f7TXVu8PWjpZLFXAsLYX50VRB+03w9Qx1Jjuv63hkQmj4wPvX9IjB217tDCltaPBGAG5d1QxLnonbjYcYHe7BgffXg0vmSW8np/XCaTkwVOr8gEVldHa4YTpZA/u0nKgakqSOdXImTCdqAob5pHi+kr0taF0U2OrAgdcwtDN8NHljkerhONUEy+xcmB5JjVg1CAZgy6NpcFWOcNyGykNlyLwnMaBDes4fU3GzR7gbpCfo3K0daIoTvhEJhfpse1MBm8wqyF/Ysyxaap/152S/2UKa+s59KAXVG6vQ5fKXaqRK6BQaWFeVwDwuNSopTCHwrXNyYStuYzozUTRMR7kVkhUtTG872lgxlHuoZ50DXdOHefP6DXQ0mqFamwvHxGxB+6kFA2ew/yiEln19OW5E6JcRseS9drySC9nkaWHwvM76XbLX0vRADGM977B1QLk+tDeVp+mM24xvcSMMF/RwWIR7m3Hg/Ys/ePm6kGrUsLuGRSb37HpvP/SJzbA+lwfDmMh1QOo+zRNSYdxehg4Ne0fMDnM7FJ/IIF3Sgvr5g3u90Wpqe6stII1C/uhq74Tuq0Y4lpdxNmqKUxEMeNH8ZxqTDPOUTBhO1qC3Y3AdohA6PdPEJHhJqqnPt3EbYnsCVMg17UIp3ySBsUwvyFRHEXqy/5riJ3l58JIErt4QOrSpy+qEeXclTI9R9xp6ZQar8dsevsKpIZYpmbCntKG7YzAMFt9oxBtzvQnyXdJbG7QQeB0SNuD591hnss3aVWa0fyqFaUYWZ+pi0TUUz0hFMo5PgfOlQmg+uop2a4RbMXhUJGLwNp6vCzpgS/9lAnodkY+AaadKxRkZZMtoG6jgjiksUJOO2HZQCaPC4Ke3etSf66ZzH04PDt6NlZ6vBLwmLzpbjRbWuGKQs040jU4NbZyXh85Gi980O3Xvfd39UKdpoFgr44JSWxuEu4d2d3bBUaeHcVMpbE9lgWJSRENrsHfJumJ7KhOKJZloL9eht7NnyPygIwZv88WGoOBNeyDea2l6wBYP8kdfbx9kJTLIXo9sGyga0CnWSqH+UoUudxeTaTTVXbm8FFkPsPV3kryVy0uCUOn/V5fLDcclKYzTMgVv6cQCALlcWp7KgGJvMdxmlx/9BGKj0siFOA3lmE9SttPeAWN8M6xLi7nI5QQsVrnRPtPQ9Pi4ZFimZcF+oBbaagWoLYf6iBi8LZeagsZtIPB2e0R/jJRwaiDa11f6mQSylRHu67ugAao3FZCXypgDIvJpUJ1rQtE/s7kgKrzKQGcCb1lcYdjkE90miQ6uN65BPz4pqpE6rd6wPJcLZ4YCfT3+vRmpElQe66DnZpkOug+rYXk+N6oJhVCg5lSDsUkDK00+boRTMzAZE4g2Fr3hPIsYvIpMOdLv9jYxeTY6RcJxCVxjJoRg8pN1SexQvSPjNhJhqQqhnsmWtaDtjBJWrf8MFzHYrrGhbE0Rsh4aHMBx4F0YPnj5OtGHYctWwPZyAWj/4lAACPY/2ViNm0pga/WfSOHL48+9XT1w1RphfesqzE+nh7XUKRgNrP9IgpufTIdteSks6TK42zuCqmo8jdGeIwdvRgjw3nfZK4BetITy75PZSJOn5tSBUM47LDBzqsQ6KTSZaqYU7u/vh6XajIJ/ZXBqEQVJKXw+my8+4rPL7oTzaD3M46Mzq2nHxMM6KRPqD6+CAOop1eia7LPmbBmM8/NgfTw94sEjC6S+zwxjE7kBqnVXFfqVjiHZ4CYcBkcMXm2xOuj0cPI9X6JySTE6DIPhS8MhLFhaaiSn3gnNmTYucni4AzpK3xLXCNrX1yqxeAGAL7fT4YbyuAzZv0pGwczowcvn66w1wLGyjOu+fcEQzj35DTsXlsJePrD+q8vYDsvpBjheKeIGi9SFh5Of0LSkz5rGJsM8Jwf2T5phV5hGRMry/PM8RwxeQ5U+KHhJhSCvs/y/ZaD+yzqQ9WA4DkO1HuqdypC+ECwpTNuokjWj7bIKHXb2R2aX2lDz7tBuYUUrDdSf1cD2TE7UfsM0TW1bWwbD4ykwRjllHQzApBrQ3mqWBYXQXKmPeGJhKDEQMXg79B1I/0VgnddT/828P46qx+QAACAASURBVBFlzxTA1mob8oBwJIXJaVuXoIVilTRkdEkWiGkXStmmVtiv2ZhdHzlYR3LQQMppd4LCH3l275QX3btNLmh2lHDdezDghPqPpGGoNJH+z5m6JmXB9HoZ3C0W9A+D1SAS3tI7EYOXmF+9NLhDuieAuQB7v09D1dvl6LR3+jVmpBXg3yOg6Fp1oIAlwfwAWOClZ6RKSJY0o/XIwKZ8lF+kR19fH9rVLmgvKKHcJkfbGwpoCtTM/THIvdBVroHplVzOiB8pyIbyPfoYKACecXY2LGcaYJLp/GzNkfJmKN+LGLxEhFljRtnT+UGtDp4Apuv0e+JRMiEXtek1zMaMpnL0QVGXrMhRcNtA0U7pgcAa6DkN6CSrW3Dt8lWvPS+E0EVR3RuLGqA9oUHL0kavGbDWhU3QnGgDRX5kSeFOpxutx4thnZgZlbNPNCAmF0eKYONcWQ5jcgvn0+FLqxA+jFSaqMBLRLrsLjS/fQ25f0gLuiDTE8Rkfsr+ZTKqV1XAprANucJPUtNuskPzqRrS5aHDpbKATNJbursVjhZH0GlmriyDHeY8IxS7vvE7CDAjSP4X8nVSqJIVoGXtvgdNJLilNhjWFMI0IfJp5nABzO23QU7lW0vhrNJy+9vFMmh5vkUNXsqIGtDQrEf5zEJk3sueqfIEL39NqgSBvulUw7DMwBAYbK1WKHZI0bqA4h9Uh/UjVYIGdM0nm+B2ub0kJunBnUY3Gk7UQ75GAgo/JdTqQT2C9HUJNwZgqSe0/ZejQAfr9BzOq4t8HsIFpJD0FCnI+GQq2k+1wqm1xeQO8jxQWechAS+fMUVKUV6QI/cvaSEtETyA6Uz+swR8Y01kOyHy5Qc6d3V0wZph4ZaIR2IbJmcf5VYZzIUmUAR2ZYEC6oMqtC5tDukoHuiDIa8w6bIWyE5J0eXwd8Ahydeut8N84BosE4QvaAwFWlrwSKGqHIuLYYpv5qadA/Et1p8PKXj5ytL+wSVL8pH1i6SADi+e4KVrUiUyHkiAZF8zKMDccBwOjQNtR5QRDegIhM1xDWhZ1QhagiRUygYCL/+8aX49FOukcF1zekl2vv4EYluFGtZ5hVGZ1Ug1MD+dAcfqKtiK2obc6sPTO5LnYQEvVeDG9eswVxiRNy4dFNTZF6yB7imaee5fU6HL0DAXRAZjDnXBVqOVC2eqvCRn2pa5GagqEyQbI5eaPPCiPTfOr4VshQSKw3K4JGzw8vWlACamC02wTaN4CMImICgdebfZpmdDf7iK8zWI1PGbpyOWzsMGXr6S7dZ2SI43I+dPtNVV4MB8nmAmKZz5YCLKFxTB3BJ8BockE/kPWOpMaNhQg8L/zuICSdO+FBSSylJvYkoZp8UJ7SU1JMuHTooKATNnklvUDOmGVui/1EInEW6Goo/T1KqFZXsFLI+RKsHWhbnlRY+lQ78gF53JCjh0/r4cfPuM5vOwg5eYQwDTNmlQNr8QNGHhCdRg19yCyD+lovV4k9+CSMqXZu1q02pQ/Wo5sh5K8tOzaUCY87tUVL5TBrfDewaNaKKfqlYJ9X4lyJQlBHyRpiFLAw3q1HuUUGepQatFeBrCARC9QwPRtrRGOBYUcdPMNLM28EvmAn44t12FPKsevd3evg/hlDMa0o4IeHlG0C5C0kutKPxXVtBQUb6ApgFd0ZRs6Mo03Boru84O1QUFch9P55ask6T2fcfzntSWgnGZ0OfomBuikK9vW6oKsg2tEU0zBwM0DRDlqyVoO6yAtcbCfYQEwGgPyqOz3Q1HiRrKY2WQ7i2E9tNadCpt6OvtZerP0ZYZa++PKHj5yrtsLjS9XoucBwMvv/EEH10TQLN+lYTy54pQ8LdMbqefUKD1zYNsy4Wv5qDDOCD1eHroTGBwmV3QnGyDbHHwzaqDgZX/j+IHty5rguFzHVw615BPyHjSfrtefyvgJWZT16csVqB8aiEy7hU+oCNVwBeU4dxn3pOA4v/Jga2SHYaUZujaKlSQb5Oi5bVG1M67JlidIH2W3lG9IYcxSw+yuojH8HHgWwMvXyWKFVZ/tBoFf84UPEMXDlj5tKQ/5/8pA41xNTBVBV/XRrTRVK/0bOuAs8+8wZW6vGT1PHNTysuaIH1LAm2pJib9AHh+f5fO3zp4iZk0inaZXKh4tQjZDyZHJVl5sNKZs1rcn4jCf2aj4UgNV0Y4HmKUttvYDek7rX5+wyRlyRtNvlYC2WkpnGpnxEFWvkuAGsm6xAR4+QpTl92a3Dywe2UYtmFPwNI1qRakHxfPzIU+UYt2i79LIl+mkDO3krlADuUhOVpWN6JlZSPke6RQp7XBqvXeXUhIfmKaoeFATIGXqkQDpy5XF6p3VSL3P4Q7+xBo0+++gtw/pqFu9TVIiyTcIGkoRvY8XSSJezt70ePu4VSDocp7aJry9ssl5sDLNwEtuFRVK1Exu5jbHd5XuvL3NPGRfn88isfk4irZc9XuIQUtT494jj0OxCx4iVUk2WhPL8WXUhT8Id1rWTpnOrsvCSWP5cKYaWCuVog9dosUDSUHYhq8fEUJxHaVDdIjrah5uRyVM4vRvKUOyiK5OEjimXQbnkcFeG/DdhGrLIADIngFMElMEpscEMEbm+0iUiWAAyJ4BTBJTBKbHBDBG5vtIlIlgAMieAUwSUwSmxwQwRub7SJSJYADIngFMElMEpscEMEbm+0iUiWAAxGDl2a9yKGc4tlSbC760TU9ixWHFaKD3C3pFys0CWiTIU/iyQfixXflCAu8xAR3uxtXS2qQeCoHH265hANxZ/D23A+wZ+4HOLT4LD7a8iXiP07F1ZJadLi8Fz2OBNN6enrRWi9FxpUcJH2Yg8/eScJne5Jx5UQm96y1XobuYQq3OhL1E1oG+YQQHzLjc5F4JhcX3k3GuT1JuHw4AwnnUlGcXQ6dSj+qP2pB4L1+/QYkDXKc2v4lXvuvbZjx05WYctdiPHVnHJ66c4HHma4XYMoPlnJp5v9pK86+GY82iZaTfkIZz6crSC/BthmHsPWZA16/t14+AXeHd6wvXZsBXxxKx7J/vYmZ/74K0360HJPvWoKJ31vI/SbftZh7Rv8t+ccb+HxfCvQqI18U83zpcBq2TPcum6Nl+gGc3HCB62WYL4b5kMI7HVh0GlunH/SqJ5W187mjaHcJ292yq7ML9WXN+GDzRSz6+w4fPizi+DDp+4sw5QdL8My/rcDsn6/BmsffQvzxLKgVWsH1uZrbhG3T/duF6N3z6klmvIwwWcIlJ8/CU69fwpZp/m3wxnPHgoc4JUmrV5uwbfZJPHvPmm+AOgDQAdCGvn76zjjMuX8tPtpxkfMQC6cSX55K4D4E37Kef3AdF+CP8iIH9gsHk/D8L9aByvJNG+j+6TsX4oUH1uOrE+kBGy0voQRT7lrGzHPaT5bD0Bbdvsc8LyQ1Cg5QvrROvHMh3nrpeMgPn1SBhvJWrBz3Fmb828qw+EBlEt+eu38dDi35GM5vluTztLHOOqUR037M5sukOxehIF7Y1l+svD2fOe0uvPjLDX78J3rj/rYjMHgJ9fEnsjH3VxtBDe3L2HDvJ31vETY8uh9aqfB4ZF+eTmSC94VfDYDXbnVg13PHOAkbLj18epJCh5Z+zIwL4W7vxNxf+zOP3iWevLfybNTdLgmI/XEfMQE3/SfL0HpV5tmeftdWow2HFn2CqT9awsyDr6eQM9Vp7q83cR90sOVSRPPBRR8HKC8OKx85hN4hCEKdca6IiT0Cb9KHuWzwut2dOLb2HCZ9j1QDYdJ1UIUIlj4OL/16E6R1SkGNHgy81GhvvXiCWTkhNHumoXp+ujueKeGuvJcVsAz6sC1G9ipkP5QFeGDQmvD8g+uZfF41Zg/cHYFVhtY6Keb/cVtA+jzrGM71pDsXY/+Cj+FytAegGlA0qzHj31cw6Z517xooWtoCvivkD9q3bd34d5j5z/31RtiNdn/wdnd34935H2Di9xYxXyQmEPKf+ckKvPDL9Vj49x1YO+FdrHnkHbz6x8147oF1zC7Qk3mv/HYL9MrQXW4g8M79zQace5MtlT3LEfZBDXxsM3+6EnkpxX4flV5rxNxfsaXvpLsWoTjxmpC2YKYhCZb/RQUmceMH749+4p2LcG7/V370UEakJlzNasRzD7BB782DgXypzcLhB7X/yrFvwWxg76xJevqaR9ngIgn+xYEUZp2FPmyulWAWU1WNw9svnwRpBl4DNjJ3fbDtAmhww2IAVX72fWtweOknqMyvhklvAVWCgtf1913nBlEapQ55X5Vh69RDmPYjtl5EjFz6rzdgMwffLzcQeKf9dClm3bfKi0bKc+bPVmL1+Lfx/trzuHQwDQnvZ+PsrnjsmHUUz963KugHSfVdPX4P3G5vSUemv50vHg8o3bbOOMSU2EIaifLe/sxhr3rwfJ9z/xoY2/yBQ4Avz7uKuQ9tYr7Hvz/p+4sx677V2PD0Xm5wSVaGxPdzce7tROx97SPM++MWTPvx8qB50GB32/QjASVw6tn8gDxd+N+vc7uOCuGDbxqqIw2on/6e/xiG6lWafpV7xQu8+V+VY3ogRfz7i7F1ymE0VDXjxo3gdlMqnHSepHPpoMEVz1DPM33ZZIkIdgQCr2c+dE1Mfuflj1BT1oC+vn4OTEQD/yNJpVHocHD5mYADDcqH1Ifcr/y3ar2WW4+pP1zCrMez96ziTFLB6hHoP1mTEjPv9v4I+brtm3eas537vtsm1+C1P25n0kLvktSb/4dtuPhuCldnqjv9eF7Qme473V0oyijDm3PeD86T7y/GyTWfMwNPO2wuvPanbUxaqGcuzGzxJV/QfXd3D5b8cyczX7ImdX6zofgt8NotDsT95XXmCySJj644y0lWqrzQg5hUkVMTUKeb8/M1kDbJA2YnBLwzfraCszn39oSOz0XRJEnRp3d4kHieSXqTHt3ff92LJtI71wTQv8j0dO7tBO6D9nopxA3x5vw76SBJ4kkDXU//yXLkJBX6qQxUxzdmvx9goLQAU364FHsWnITFIHyrBMoz+3IxXv3PLQHznfrDpci+VOJHD/UcJ7Zc4ISHbx2Il4eWnmeCPgRrUJZ3FdN/4t9GJKTOvXPllnWIAy8B8rO3kwIQsRC7Zh3j1INQhbL+p0ZKOJuGqQwVgip4YsN5Tn9hvRsKvKRzJp/KDavbJoaf3v5lwIZa8vddcDqcXuQQfz49cimgVWPRf+8EDXLDOchOvXrsHj/gEghe+/N2dLm7/bKrygvcA1BP9ulb8cytuPwy8nlA9VM0q7jBny8I+ftFf38Ddpu/mtdSJ8OMn61k1uP5X66D3ezNS5+i/W5Jlz265hMmFp+9exVkzYpb73DgtRpsePZedve16K870SHQSH4rV58LGjlunLifWcFX/nMznDZ2TK/g4I3Drmffj6ixtCodnvsFW5157oG10Ov8zXlGjQnP/WItsw404CpJHdDDfKoe8LaupBWTf+AvdemD/uJgqt97XZ3deO3P7C6aVIU3nj+Kri5/wPtlFOABAbixSsJNXPCA9TyT1CM91PcgFXLX7GNMvtAHdeXDdN9Xgt677B2YH0AV2Tn7Pa8ejgNv6me5zO6LRrxpp/L9uougpTP+JMZkXSxijqpJzyxOYe8wGQy8JMnrSiPTqYied+d9wJS+0368FMpGrV8tqAc5svxT5oidALd7Lqkb/X7vsR5QXu8uPMkcBJKZSd6i9HutKKUSU+5aygTJvN9vZUpqv0wEPLh8LA2kCnkCl79+8Vcb/AZvxMui5CpOZeHTeZ43Pn0grF674EoFky+kupb44IQD79svfsAkdu5vN6Gnq1dAlUMnoQaZc5+/5KIP5OT688wPJBh41z+2L+wZO08qS1OrmeCdfNci1Bb4fxTUSOSv8cxP2V0kNSxLYnuWyV/bLDbM/z1LisZh/ZPvMsOh7l9whtlGxL+LRxOZ/OPLC+dMEzNxf2YPlkj3vZrb7Jed0+YE9aCeoOWvn713NXQy/57MLxOAUx9fn3mUCd6Xf7sZVrPN67U7+vqu44WH2PbCE2s/90oczY3T4cLL/8k272x4cj/z6wwE3qe/txCfvPHVLcU9Ero0EgOm/thfkk3+ARu8VAZ13cv+dxezkahbvXw0QxCISpPrmObISd9biIqMGr/q9Pb04aXfbGSWO/OelbCFqVf6FeDx4OubX+PYxk9BU9M8AD3PJzd84ZF68PKzfQlM0JFK89G2S4L4YjQYuUksz/LomvJ4b92nfmObO9pa9EwJRADJ+bxikLoor8i5Z+nD9EX72+7i/rwDdpvDr4RA4CX7cfrlbEEM8cv0mwcOk5NppgoGXpK+6ecKmYMJYvKCv2wP2RvcuH4D6x7fy+T54r+/wQyi0lItCwimt54/GRUfWPxpqpQEVB2W/nOXH4goD7JwkH+EL/Do/uXfboTLZ1sFVrk550uZvH3mZyugb/OX3nfkfVEB6np8CyU9bsuUw9i/8BT2Lzwd9W/fwlOY8yDbuefFB9fDqPefcQsE3md/tgq1FfWs+gt+Fgl4KXNyFqEuzJdfdD/9x8tRX+nfrXoSJWtQct5tvu9zEmrrRSYQE05nYuKdrMHdQiQez/HMfkiuyVYeaHA69SdL0c4AIlkJdsw6wvwop/5wGSrz/XsUT2JpvEATVyzhtnXyYWbM4zvIz5MFXl/mDuf9jJ+ugE4WBng5k4n/oMaTGaGuIwUvDbb2zyNHmkDd6sWgRX9xKJX5LjkuyRv9/QFI2n+w8zNmG9Eg5mpWbdDyIv1z9Ti2GY+EmqpFw8y2IqcWEwP4wxyI+4T5YfIZNV2TYOoP/Wf8yEst8UwW89073lt5jsnM4QSrb96BRviBJC/pedo2PV/viM6RgpcKa7kmB9mYfetB92RydFjZDi03b36N5f+7m/keTcMSUH0PenZ81XlmG5HFpaY8uh7Itzz+nqQdq34k6JqqJHwyrzPZ0MmZiPXe9J8uh1nvPeDyfPnCnhRmHZ97YA3cTvaihjvI/BNIirCIGI5nE+9ahJaqQeMzX6mA4L13BfSa4I7kfB6BztGAl/LcPPEgs5FIUsR/mMkEYm1xE5PXJEGLk9nmQgLveysvMN8j3b92mMC7feoRZv0IvA3l/tYYns8JJ7NBvYgvTogvF48mM/lCvjFL/oc9ED619TKftd/5jvN7kphdEhVO9j4ywA/3b/IPlqC5yn+aOJbBm32xlGkbJ75tfuqgn45G/rF7Xma7cD7/i/Wg6XnWQcL4xNZ0ZhsR3yryI/dqY5XHP1v76Lt+AKS6kdqgbFbzyfzOJq0FNMDyBS/dr39svx9fKIOK7Bom4Mk/oqEq8IdyR9a5UuZggJbyXD6ajtLUa8P+K0+rQTuja4hl8NrNDsz6+WpmI03/t2VQSbz1wnZnO17+jy1+6Tkz0KpzTInEI+PS+ykgH1tfQJBFKPV0Pp9syM7U/c8NYJqb/KNFcFjYM6JEAPUUx1Z9xhy4kXO9usV7AojK2s191L5WqDgs++cbTBMqX9E7pNdUzC6JurKK7GscMUTQcP94gjzPsQxe4seZ7V8xG4lspPuXnvIyKRUnVmEiY+Zq5t0rIW30V5k8+VBTxFY3CMyHFn/imXRIrhVNGqYdmsojcyCZPYMd8mYVyA/B92MjvhxY8pEXX9wuN15lfNRkN0/7uCDoR31HT2cvZjH9GuJwcV9aMBqH/b9YBi9VXqW0YM7P/WcNqdFoxYjZMLDKgtbZbX6KfDt8pcsCbHxyf0ifBJr1mnU/W8q/8NC6IZsapjrRR/npO1eYagrV6/CST0O2e09PD9Y9yXZUf+mhQb5QRqUp15i23Vf+YwtMBlPQsrjp4UCDj0AG6aA5DuGfsQ5ect7fFMDhiHquwoQqDgzk9jmbNTX+vcW4fEKYgNg1630/SUZgInUi4/PgEiqcJqHFBSv+9212WXctRmlStaDsMs8XMj8AbnCaNODERBJ8y9SDfr0XqVL75p8K6G3IE8CBl7zsSX/yF/OLkPW5vx8n//Jwn2MdvFT/3MulTLWLeLlt+mFuCvur97Iw8fv+/CV/CMs30jkUL9PO52Eyw/eXylk3YW/IrjxU/vz/nJPND9iO97SKxqTzt8fz73qeaTJnwZ/Z/uE7Zx3jPmqFpI3Zc5GBoDK3zjM75jUHXnmTKuCSECLAavL342TmFuRhZ2cX9i78EPmflwr2vhoN4G1vb8fCv7EdWWiVRHO1FMsfftNPMHADtRWfCeYFWSPmPMBWUSivzw8kh5RUQZqHA5O+zYiXf8v2PyErw8GlZ4Jl4fUfDcQ+fP0iUyWg1SfkqJV6uoA5Db3i4beYq7m9CgAG1rDRrNHuueSi56+TkZ62atyekOvNfDP2vO/q6sKhZR9z651oqnDva6dAjjqhjtEAXuLd2d1XmIMxMjVumnQAU37kL8me+beVKMu9yoEmFB/4/9M+zWc2Nknf6T9egdyLpRED2Glrx+an/btwvjem+AladXgTQ7JmJQiofB78mVaPXNibhI1P+/t4k1px6XCq16COr7/vmZO89FDeqgLZG/kCPM/kVLxl8kEopW2CMuULIeXfbnXizZff92pc+khWjHkLzddkQT3DRgN4Od4FaCRPHvpeLxuzK2xHem450iNkf2UJmQWYde9qXDiQiE53p+CPgiSktF6JTU8eYEpJopvUlTNvXgraVnybe545M9jcE0xM0QB08o/8zX8UxUcp8Z8m98yXv74FXiro9A5aHuOvm1EFCHAv/8cmXHovBVZT4Gk+PmNy1CjNrsTKMW8z86T8XvjlBlSk1gRk9GgBL0nft15iN5IvaOmezEC0li7cg4RBTXkDnn+A7b1FedPs1rapR5CXVBwy7FKbXI1Pd8VzawzZve5Au29+ej/I4hHuQfQWp1VhOmMJGIsv9GzPXOFecrfAS4S1u9rx+tTDzMEbXxhFmHnx1+txYsMFVGU2crqLUWeCzeKAUWeGvEWFkoRqvDHnGBevLJCUoPwW/Hk7FK2qUQ9eaqSy9NqAS/153vFnch1Uy72N9UKBQR9KxtlCzPyZf3fM509n8nBb+PfXuXYiz8Ha/BY0l0tRmVHPfTi75x4HLa+nD8nzPd9rWk9H+inVMZLDRQO3/2I53nvHqaByp/5oKSqzQg/UeDq8wEsPaXC27B+7Aui/3gUSkGffs5aToC/9ZhMXV2r2vWu9VARfZvD3FFusqaaVp4N5Hi2Sl4in6DLz/sB2leTrTGfq2XbOOBJ2F+zJIOolEz/IxTM/Zk/DepY3UGYcaBUExRejkbzv/4HuX/jVBrQ2BA835UlXoOtLR9iedL7l0mDRYRW+YNMPvPSFaeQGrJuwj9nd+xYY7j013tL/tyvkrBIxYjSBl+j9/GBySJ7RgKShnO2VFajxWc/JqT3/UuU3pia2Dhxu2/Dpyflm7SN7oZIE9mFg0RTomc3kwAsBQlrxZRIuPtr2RVgS3g+8PAG0dm3PKye/WT8/FMyJw9QfL8O++WcCrhbmy+bPow28DrOLi4jJNwjrvOL/3uYiDPF1jPbcXC0BOdGE6v5ZtPg/i8MzP12BQytPRxzthlUf+tB2zGY7qvM0zPz3FTDrw4v7FhC8RAS5qjWXSbB2wl4unitfUDhnGghQLNhV499CTWFzWKacS6fZIU5nDqdL5F2LUZsffDUEq4E4flEjPUsLCNkfO0m0z99NDUu6BCrL83lPdy8yzhdxS+Mp8Eg47UNpid5n/30Vtk47BFmtKiqVxpMuz2tyBw00yUI07Hz2uNeyds93A10HBS//Ek0ZVuc34OjKc5j/h60cGMnrjExonowiJpBtk/QrAmzcX7bj+LoLuFpQx5lv+PyEnlMuZnGhjV7+3Sbwv1d+twmL/99OLk6a0HxY6dqtHVzQjyX/vQOev2X/eBMtDPdMVh6sZ1W5dVj6P7u88hzIfydW/vMtUGzb4TrILJnzVTF2v3Acsx9YzQ3a+ADbg+0Ux0npqT/g2+h1fLj5C9SXN4Oiyg/XQfEdaCZwkI7B8ROtvsj83D/IYShaBIGXMiFdmEa6HU43qkvq8OWZJHzyRjyOrTzPzUNTSP8T6y5yel/ShQw01UjQ3dnNvRPpSJV8BzrbO/1/HV1h2ZtZTCCayGGGehfvX3R7alC+3vkN5k/dZ6S8YNWB9Yzyp3aiaeeizHJ8cTwZH2z6AoeXnsW780/h/VXn8embV5B8NhN1FY2cekArhoebLqJ1wxP7mOB98dcb/CLds+rm+0wweH1fpHtiEo18afEc2XXpeiSYwKJFfMbmAA9mah9+wxtqt5E+GiskTDdL6q0/3Z0YETlRgTeiEsWXbjsO0Meyd8EppiWG9jdprYvMHCeC97aD0shXmGLdUUBxX32XpO7S/9vFDOUqhEoRvEK4JKaJigN5X5YxLTCTvr8Q2Z/5x0MWWpgIXqGcEtNFxAEy49H2AL5Sl+4pXptv/LFwChHBGw63xLRhcYAGi7UVDcz4vTSjdmDh2ahsyiJ4w2oOMXE4HKCB2sFF7OiW5IRTH2GIWp4GEbw8J8TzkHKAgJuXWBJwC4UtEw+FDEoYiiARvKE4JP7P5ACpBGQ79p3goOdk7y9ILONcLlm6Lq2mSfwsPeo5ARG8zKYRH4bigM1qx/bJR7lo8YkfZ6IwuYID7JfHUrF9+lFM+wl7GzMC8+K/7YzIud2XJhG8vhwR7wVxQKPWcnvycf4sdy7mluDTMnyKScaStvwz8rVIPz80UX5E8ApqKjGRLwdaqpTcfsc8KIWcCei0ayZFmB+KQwTvUHDxNsyDtp0lMAoB7UCaOCz6+46oo3t6sloEryc3xGvBHDizgx2njQVm8mOmKDytDdKoB2meBIrg9eSGeC2YA4cXf/LNItA4zuFmQAqTJKb7gR8teZr3+23cftY2S/SBa3yJE8HryxHxXhAHKIaEplWP/IsV+Pj1K3jrhRPYPOkA93v31Y9w6UAGmkploG27PqjP8wAAAORJREFUhssFUwSvoKYSE8UiB0TwxmKriDQJ4oAIXkFsEhPFIgdE8MZiq4g0CeKACF5BbBITxSIHRPDGYquINAnigAheQWwSE8UiB0TwxmKriDQJ4oAIXkFsEhPFIgdE8MZiq4g0CeKACF5BbBITxSIHRPDGYquINAnigAheQWwSE8UiB0TwxmKriDQJ4oAIXkFsEhPFIgdE8MZiq4g0CeKACF5BbBITxSIHRPDGYquINAnigAheQWwSE8UiB0TwxmKriDQJ4oAIXkFsEhPFIgdE8MZiq4g0CeKACF5BbBITxSIH/j/c+0vf9dQPMQAAAABJRU5ErkJggg==;" parent="1" vertex="1">
          <mxGeometry x="855" y="120" width="100" height="120" as="geometry" />
        </mxCell>
        <mxCell id="j6Cg3OJ-4-FY4ZUoHzWM-44" style="edgeStyle=orthogonalEdgeStyle;curved=1;sketch=0;orthogonalLoop=1;jettySize=auto;html=1;entryX=0;entryY=0.5;entryDx=0;entryDy=0;strokeWidth=2;fontSize=16;startArrow=none;startFill=0;dashed=1;" parent="1" source="j6Cg3OJ-4-FY4ZUoHzWM-38" target="j6Cg3OJ-4-FY4ZUoHzWM-39" edge="1">
          <mxGeometry relative="1" as="geometry" />
        </mxCell>
        <mxCell id="j6Cg3OJ-4-FY4ZUoHzWM-45" value="connection" style="edgeLabel;html=1;align=center;verticalAlign=middle;resizable=0;points=[];fontSize=16;" parent="j6Cg3OJ-4-FY4ZUoHzWM-44" vertex="1" connectable="0">
          <mxGeometry x="0.1128" y="1" relative="1" as="geometry">
            <mxPoint as="offset" />
          </mxGeometry>
        </mxCell>
        <mxCell id="j6Cg3OJ-4-FY4ZUoHzWM-38" value="socket" style="rounded=0;whiteSpace=wrap;html=1;shadow=1;align=center;fillColor=#ffe6cc;strokeColor=#d79b00;" parent="1" vertex="1">
          <mxGeometry x="280" y="140" width="60" height="30" as="geometry" />
        </mxCell>
        <mxCell id="j6Cg3OJ-4-FY4ZUoHzWM-39" value="socket" style="rounded=0;whiteSpace=wrap;html=1;shadow=1;align=center;fillColor=#ffe6cc;strokeColor=#d79b00;" parent="1" vertex="1">
          <mxGeometry x="800" y="140" width="60" height="30" as="geometry" />
        </mxCell>
        <mxCell id="PbOfhPjGaJXk7FXD5pcL-2" value="&lt;font style=&quot;font-size: 17px&quot;&gt;BPF_MAP_TYPE_SOCKHASH&lt;/font&gt;" style="rounded=1;whiteSpace=wrap;html=1;align=center;shadow=1;verticalAlign=top;fillColor=#fff2cc;strokeColor=#d6b656;" vertex="1" parent="1">
          <mxGeometry x="323" y="220" width="485" height="138" as="geometry" />
        </mxCell>
        <mxCell id="PbOfhPjGaJXk7FXD5pcL-3" value="" style="shape=table;html=1;whiteSpace=wrap;startSize=0;container=1;collapsible=0;childLayout=tableLayout;fillColor=#dae8fc;strokeColor=#6c8ebf;shadow=1;" vertex="1" parent="1">
          <mxGeometry x="845" y="268" width="155" height="90" as="geometry" />
        </mxCell>
        <mxCell id="PbOfhPjGaJXk7FXD5pcL-4" value="" style="shape=partialRectangle;html=1;whiteSpace=wrap;collapsible=0;dropTarget=0;pointerEvents=0;fillColor=none;top=0;left=0;bottom=0;right=0;points=[[0,0.5],[1,0.5]];portConstraint=eastwest;" vertex="1" parent="PbOfhPjGaJXk7FXD5pcL-3">
          <mxGeometry width="155" height="25" as="geometry" />
        </mxCell>
        <mxCell id="PbOfhPjGaJXk7FXD5pcL-5" value="local_ip: 10.0.0.2" style="shape=partialRectangle;html=1;whiteSpace=wrap;connectable=0;overflow=hidden;fillColor=none;top=0;left=0;bottom=0;right=0;align=left;" vertex="1" parent="PbOfhPjGaJXk7FXD5pcL-4">
          <mxGeometry width="155" height="25" as="geometry" />
        </mxCell>
        <mxCell id="PbOfhPjGaJXk7FXD5pcL-6" value="" style="shape=partialRectangle;html=1;whiteSpace=wrap;collapsible=0;dropTarget=0;pointerEvents=0;fillColor=none;top=0;left=0;bottom=0;right=0;points=[[0,0.5],[1,0.5]];portConstraint=eastwest;" vertex="1" parent="PbOfhPjGaJXk7FXD5pcL-3">
          <mxGeometry y="25" width="155" height="21" as="geometry" />
        </mxCell>
        <mxCell id="PbOfhPjGaJXk7FXD5pcL-7" value="local_port: 15006" style="shape=partialRectangle;html=1;whiteSpace=wrap;connectable=0;overflow=hidden;fillColor=none;top=0;left=0;bottom=0;right=0;align=left;" vertex="1" parent="PbOfhPjGaJXk7FXD5pcL-6">
          <mxGeometry width="155" height="21" as="geometry" />
        </mxCell>
        <mxCell id="PbOfhPjGaJXk7FXD5pcL-8" value="" style="shape=partialRectangle;html=1;whiteSpace=wrap;collapsible=0;dropTarget=0;pointerEvents=0;fillColor=none;top=0;left=0;bottom=0;right=0;points=[[0,0.5],[1,0.5]];portConstraint=eastwest;" vertex="1" parent="PbOfhPjGaJXk7FXD5pcL-3">
          <mxGeometry y="46" width="155" height="23" as="geometry" />
        </mxCell>
        <mxCell id="PbOfhPjGaJXk7FXD5pcL-9" value="remote_ip: 10.0.0.3" style="shape=partialRectangle;html=1;whiteSpace=wrap;connectable=0;overflow=hidden;fillColor=none;top=0;left=0;bottom=0;right=0;align=left;fontStyle=1" vertex="1" parent="PbOfhPjGaJXk7FXD5pcL-8">
          <mxGeometry width="155" height="23" as="geometry" />
        </mxCell>
        <mxCell id="PbOfhPjGaJXk7FXD5pcL-10" value="" style="shape=partialRectangle;html=1;whiteSpace=wrap;collapsible=0;dropTarget=0;pointerEvents=0;fillColor=none;top=0;left=0;bottom=0;right=0;points=[[0,0.5],[1,0.5]];portConstraint=eastwest;" vertex="1" parent="PbOfhPjGaJXk7FXD5pcL-3">
          <mxGeometry y="69" width="155" height="21" as="geometry" />
        </mxCell>
        <mxCell id="PbOfhPjGaJXk7FXD5pcL-11" value="remote_port: 30003" style="shape=partialRectangle;html=1;whiteSpace=wrap;connectable=0;overflow=hidden;fillColor=none;top=0;left=0;bottom=0;right=0;align=left;fontStyle=1" vertex="1" parent="PbOfhPjGaJXk7FXD5pcL-10">
          <mxGeometry width="155" height="21" as="geometry" />
        </mxCell>
        <mxCell id="PbOfhPjGaJXk7FXD5pcL-12" value="&lt;font style=&quot;font-size: 17px&quot;&gt;BPF_MAP_TYPE_HASH(proxy map)&lt;/font&gt;" style="rounded=1;whiteSpace=wrap;html=1;align=center;shadow=1;verticalAlign=top;fillColor=#fff2cc;strokeColor=#d6b656;" vertex="1" parent="1">
          <mxGeometry x="323" y="372" width="485" height="130" as="geometry" />
        </mxCell>
        <mxCell id="PbOfhPjGaJXk7FXD5pcL-13" value="" style="shape=table;html=1;whiteSpace=wrap;startSize=0;container=1;collapsible=0;childLayout=tableLayout;fillColor=#dae8fc;strokeColor=#6c8ebf;shadow=1;align=left;" vertex="1" parent="1">
          <mxGeometry x="362" y="412" width="420" height="76" as="geometry" />
        </mxCell>
        <mxCell id="PbOfhPjGaJXk7FXD5pcL-14" style="shape=partialRectangle;html=1;whiteSpace=wrap;collapsible=0;dropTarget=0;pointerEvents=0;fillColor=none;top=0;left=0;bottom=0;right=0;points=[[0,0.5],[1,0.5]];portConstraint=eastwest;" vertex="1" parent="PbOfhPjGaJXk7FXD5pcL-13">
          <mxGeometry width="420" height="25" as="geometry" />
        </mxCell>
        <mxCell id="PbOfhPjGaJXk7FXD5pcL-15" value="socket 4-tuple" style="shape=partialRectangle;html=1;whiteSpace=wrap;connectable=0;overflow=hidden;fillColor=#7EA6E0;top=0;left=0;bottom=0;right=0;align=center;" vertex="1" parent="PbOfhPjGaJXk7FXD5pcL-14">
          <mxGeometry width="210" height="25" as="geometry" />
        </mxCell>
        <mxCell id="PbOfhPjGaJXk7FXD5pcL-16" value="peer socket 4-tuple" style="shape=partialRectangle;html=1;whiteSpace=wrap;connectable=0;overflow=hidden;fillColor=#7EA6E0;top=0;left=0;bottom=0;right=0;align=center;" vertex="1" parent="PbOfhPjGaJXk7FXD5pcL-14">
          <mxGeometry x="210" width="210" height="25" as="geometry" />
        </mxCell>
        <mxCell id="PbOfhPjGaJXk7FXD5pcL-17" value="" style="shape=partialRectangle;html=1;whiteSpace=wrap;collapsible=0;dropTarget=0;pointerEvents=0;fillColor=none;top=0;left=0;bottom=0;right=0;points=[[0,0.5],[1,0.5]];portConstraint=eastwest;" vertex="1" parent="PbOfhPjGaJXk7FXD5pcL-13">
          <mxGeometry y="25" width="420" height="24" as="geometry" />
        </mxCell>
        <mxCell id="PbOfhPjGaJXk7FXD5pcL-18" value="&lt;span&gt;10.0.0.3,30003, 10.0.0.2, 8080&lt;/span&gt;" style="shape=partialRectangle;html=1;whiteSpace=wrap;connectable=0;overflow=hidden;fillColor=none;top=0;left=0;bottom=0;right=0;align=left;" vertex="1" parent="PbOfhPjGaJXk7FXD5pcL-17">
          <mxGeometry width="210" height="24" as="geometry" />
        </mxCell>
        <mxCell id="PbOfhPjGaJXk7FXD5pcL-19" value="&lt;span&gt;10.0.0.2, 15006, 10.0.0.3, 30003&lt;/span&gt;" style="shape=partialRectangle;html=1;whiteSpace=wrap;connectable=0;overflow=hidden;fillColor=none;top=0;left=0;bottom=0;right=0;align=left;" vertex="1" parent="PbOfhPjGaJXk7FXD5pcL-17">
          <mxGeometry x="210" width="210" height="24" as="geometry" />
        </mxCell>
        <mxCell id="PbOfhPjGaJXk7FXD5pcL-20" value="" style="shape=partialRectangle;html=1;whiteSpace=wrap;collapsible=0;dropTarget=0;pointerEvents=0;fillColor=none;top=0;left=0;bottom=0;right=0;points=[[0,0.5],[1,0.5]];portConstraint=eastwest;" vertex="1" parent="PbOfhPjGaJXk7FXD5pcL-13">
          <mxGeometry y="49" width="420" height="27" as="geometry" />
        </mxCell>
        <mxCell id="PbOfhPjGaJXk7FXD5pcL-21" value="&lt;span&gt;10.0.0.2, 15006, 10.0.0.3, 30003&lt;/span&gt;" style="shape=partialRectangle;html=1;whiteSpace=wrap;connectable=0;overflow=hidden;fillColor=none;top=0;left=0;bottom=0;right=0;align=left;" vertex="1" parent="PbOfhPjGaJXk7FXD5pcL-20">
          <mxGeometry width="210" height="27" as="geometry" />
        </mxCell>
        <mxCell id="PbOfhPjGaJXk7FXD5pcL-22" value="&lt;span&gt;10.0.0.3,30003, 10.0.0.2, 8080&lt;/span&gt;" style="shape=partialRectangle;html=1;whiteSpace=wrap;connectable=0;overflow=hidden;fillColor=none;top=0;left=0;bottom=0;right=0;align=left;" vertex="1" parent="PbOfhPjGaJXk7FXD5pcL-20">
          <mxGeometry x="210" width="210" height="27" as="geometry" />
        </mxCell>
        <mxCell id="PbOfhPjGaJXk7FXD5pcL-23" value="" style="shape=table;html=1;whiteSpace=wrap;startSize=0;container=1;collapsible=0;childLayout=tableLayout;fillColor=#dae8fc;strokeColor=#6c8ebf;shadow=1;align=left;" vertex="1" parent="1">
          <mxGeometry x="130" y="268" width="160" height="98" as="geometry" />
        </mxCell>
        <mxCell id="PbOfhPjGaJXk7FXD5pcL-24" value="" style="shape=partialRectangle;html=1;whiteSpace=wrap;collapsible=0;dropTarget=0;pointerEvents=0;fillColor=none;top=0;left=0;bottom=0;right=0;points=[[0,0.5],[1,0.5]];portConstraint=eastwest;" vertex="1" parent="PbOfhPjGaJXk7FXD5pcL-23">
          <mxGeometry width="160" height="24" as="geometry" />
        </mxCell>
        <mxCell id="PbOfhPjGaJXk7FXD5pcL-25" value="local_ip: 10.0.0.3" style="shape=partialRectangle;html=1;whiteSpace=wrap;connectable=0;overflow=hidden;fillColor=none;top=0;left=0;bottom=0;right=0;align=left;fontStyle=1" vertex="1" parent="PbOfhPjGaJXk7FXD5pcL-24">
          <mxGeometry width="160" height="24" as="geometry" />
        </mxCell>
        <mxCell id="PbOfhPjGaJXk7FXD5pcL-26" value="" style="shape=partialRectangle;html=1;whiteSpace=wrap;collapsible=0;dropTarget=0;pointerEvents=0;fillColor=none;top=0;left=0;bottom=0;right=0;points=[[0,0.5],[1,0.5]];portConstraint=eastwest;" vertex="1" parent="PbOfhPjGaJXk7FXD5pcL-23">
          <mxGeometry y="24" width="160" height="21" as="geometry" />
        </mxCell>
        <mxCell id="PbOfhPjGaJXk7FXD5pcL-27" value="local_port: 30003(random)" style="shape=partialRectangle;html=1;whiteSpace=wrap;connectable=0;overflow=hidden;fillColor=none;top=0;left=0;bottom=0;right=0;align=left;fontStyle=1" vertex="1" parent="PbOfhPjGaJXk7FXD5pcL-26">
          <mxGeometry width="160" height="21" as="geometry" />
        </mxCell>
        <mxCell id="PbOfhPjGaJXk7FXD5pcL-28" value="" style="shape=partialRectangle;html=1;whiteSpace=wrap;collapsible=0;dropTarget=0;pointerEvents=0;fillColor=none;top=0;left=0;bottom=0;right=0;points=[[0,0.5],[1,0.5]];portConstraint=eastwest;" vertex="1" parent="PbOfhPjGaJXk7FXD5pcL-23">
          <mxGeometry y="45" width="160" height="24" as="geometry" />
        </mxCell>
        <mxCell id="PbOfhPjGaJXk7FXD5pcL-29" value="remote_ip: 10.0.0.2 (pod ip)" style="shape=partialRectangle;html=1;whiteSpace=wrap;connectable=0;overflow=hidden;fillColor=none;top=0;left=0;bottom=0;right=0;align=left;" vertex="1" parent="PbOfhPjGaJXk7FXD5pcL-28">
          <mxGeometry width="160" height="24" as="geometry" />
        </mxCell>
        <mxCell id="PbOfhPjGaJXk7FXD5pcL-30" value="" style="shape=partialRectangle;html=1;whiteSpace=wrap;collapsible=0;dropTarget=0;pointerEvents=0;fillColor=none;top=0;left=0;bottom=0;right=0;points=[[0,0.5],[1,0.5]];portConstraint=eastwest;" vertex="1" parent="PbOfhPjGaJXk7FXD5pcL-23">
          <mxGeometry y="69" width="160" height="29" as="geometry" />
        </mxCell>
        <mxCell id="PbOfhPjGaJXk7FXD5pcL-31" value="remote_port: 8080" style="shape=partialRectangle;html=1;whiteSpace=wrap;connectable=0;overflow=hidden;fillColor=none;top=0;left=0;bottom=0;right=0;align=left;" vertex="1" parent="PbOfhPjGaJXk7FXD5pcL-30">
          <mxGeometry width="160" height="29" as="geometry" />
        </mxCell>
        <mxCell id="PbOfhPjGaJXk7FXD5pcL-32" value="" style="shape=table;html=1;whiteSpace=wrap;startSize=0;container=1;collapsible=0;childLayout=tableLayout;fillColor=#dae8fc;strokeColor=#6c8ebf;shadow=1;align=left;" vertex="1" parent="1">
          <mxGeometry x="362" y="258" width="410" height="80" as="geometry" />
        </mxCell>
        <mxCell id="PbOfhPjGaJXk7FXD5pcL-33" style="shape=partialRectangle;html=1;whiteSpace=wrap;collapsible=0;dropTarget=0;pointerEvents=0;fillColor=none;top=0;left=0;bottom=0;right=0;points=[[0,0.5],[1,0.5]];portConstraint=eastwest;" vertex="1" parent="PbOfhPjGaJXk7FXD5pcL-32">
          <mxGeometry width="410" height="25" as="geometry" />
        </mxCell>
        <mxCell id="PbOfhPjGaJXk7FXD5pcL-34" value="socket 4-tuple" style="shape=partialRectangle;html=1;whiteSpace=wrap;connectable=0;overflow=hidden;fillColor=#7EA6E0;top=0;left=0;bottom=0;right=0;align=center;" vertex="1" parent="PbOfhPjGaJXk7FXD5pcL-33">
          <mxGeometry width="317" height="25" as="geometry" />
        </mxCell>
        <mxCell id="PbOfhPjGaJXk7FXD5pcL-35" value="sk fd" style="shape=partialRectangle;html=1;whiteSpace=wrap;connectable=0;overflow=hidden;fillColor=#7EA6E0;top=0;left=0;bottom=0;right=0;align=center;" vertex="1" parent="PbOfhPjGaJXk7FXD5pcL-33">
          <mxGeometry x="317" width="93" height="25" as="geometry" />
        </mxCell>
        <mxCell id="PbOfhPjGaJXk7FXD5pcL-36" value="" style="shape=partialRectangle;html=1;whiteSpace=wrap;collapsible=0;dropTarget=0;pointerEvents=0;fillColor=none;top=0;left=0;bottom=0;right=0;points=[[0,0.5],[1,0.5]];portConstraint=eastwest;" vertex="1" parent="PbOfhPjGaJXk7FXD5pcL-32">
          <mxGeometry y="25" width="410" height="26" as="geometry" />
        </mxCell>
        <mxCell id="PbOfhPjGaJXk7FXD5pcL-37" value="10.0.0.3,30003, 10.0.0.2, 8080" style="shape=partialRectangle;html=1;whiteSpace=wrap;connectable=0;overflow=hidden;fillColor=none;top=0;left=0;bottom=0;right=0;align=left;" vertex="1" parent="PbOfhPjGaJXk7FXD5pcL-36">
          <mxGeometry width="317" height="26" as="geometry" />
        </mxCell>
        <mxCell id="PbOfhPjGaJXk7FXD5pcL-38" value="socket fd" style="shape=partialRectangle;html=1;whiteSpace=wrap;connectable=0;overflow=hidden;fillColor=none;top=0;left=0;bottom=0;right=0;align=left;" vertex="1" parent="PbOfhPjGaJXk7FXD5pcL-36">
          <mxGeometry x="317" width="93" height="26" as="geometry" />
        </mxCell>
        <mxCell id="PbOfhPjGaJXk7FXD5pcL-39" value="" style="shape=partialRectangle;html=1;whiteSpace=wrap;collapsible=0;dropTarget=0;pointerEvents=0;fillColor=none;top=0;left=0;bottom=0;right=0;points=[[0,0.5],[1,0.5]];portConstraint=eastwest;" vertex="1" parent="PbOfhPjGaJXk7FXD5pcL-32">
          <mxGeometry y="51" width="410" height="29" as="geometry" />
        </mxCell>
        <mxCell id="PbOfhPjGaJXk7FXD5pcL-40" value="10.0.0.2, 15006, 10.0.0.3, 30003" style="shape=partialRectangle;html=1;whiteSpace=wrap;connectable=0;overflow=hidden;fillColor=none;top=0;left=0;bottom=0;right=0;align=left;" vertex="1" parent="PbOfhPjGaJXk7FXD5pcL-39">
          <mxGeometry width="317" height="29" as="geometry" />
        </mxCell>
        <mxCell id="PbOfhPjGaJXk7FXD5pcL-41" value="socket fd" style="shape=partialRectangle;html=1;whiteSpace=wrap;connectable=0;overflow=hidden;fillColor=none;top=0;left=0;bottom=0;right=0;align=left;" vertex="1" parent="PbOfhPjGaJXk7FXD5pcL-39">
          <mxGeometry x="317" width="93" height="29" as="geometry" />
        </mxCell>
        <mxCell id="j6Cg3OJ-4-FY4ZUoHzWM-40" style="edgeStyle=orthogonalEdgeStyle;sketch=0;orthogonalLoop=1;jettySize=auto;html=1;entryX=-0.003;entryY=-0.2;entryDx=0;entryDy=0;entryPerimeter=0;strokeWidth=2;curved=1;exitX=0.25;exitY=1;exitDx=0;exitDy=0;" parent="1" source="j6Cg3OJ-4-FY4ZUoHzWM-38" target="PbOfhPjGaJXk7FXD5pcL-39" edge="1">
          <mxGeometry relative="1" as="geometry">
            <mxPoint x="408.68000000000006" y="411.328" as="targetPoint" />
          </mxGeometry>
        </mxCell>
        <mxCell id="j6Cg3OJ-4-FY4ZUoHzWM-41" style="edgeStyle=orthogonalEdgeStyle;curved=1;sketch=0;orthogonalLoop=1;jettySize=auto;html=1;entryX=1;entryY=0.5;entryDx=0;entryDy=0;strokeWidth=2;exitX=0.5;exitY=1;exitDx=0;exitDy=0;" parent="1" source="j6Cg3OJ-4-FY4ZUoHzWM-39" target="PbOfhPjGaJXk7FXD5pcL-36" edge="1">
          <mxGeometry relative="1" as="geometry">
            <mxPoint x="764" y="411.994" as="targetPoint" />
          </mxGeometry>
        </mxCell>
        <mxCell id="PbOfhPjGaJXk7FXD5pcL-45" style="edgeStyle=orthogonalEdgeStyle;sketch=0;orthogonalLoop=1;jettySize=auto;html=1;entryX=0;entryY=0.5;entryDx=0;entryDy=0;strokeWidth=2;curved=1;exitX=0.25;exitY=1;exitDx=0;exitDy=0;" edge="1" parent="1" source="j6Cg3OJ-4-FY4ZUoHzWM-38" target="PbOfhPjGaJXk7FXD5pcL-17">
          <mxGeometry relative="1" as="geometry">
            <mxPoint x="305" y="180" as="sourcePoint" />
            <mxPoint x="370.77" y="313.20000000000005" as="targetPoint" />
          </mxGeometry>
        </mxCell>
        <mxCell id="PbOfhPjGaJXk7FXD5pcL-46" style="edgeStyle=orthogonalEdgeStyle;curved=1;sketch=0;orthogonalLoop=1;jettySize=auto;html=1;entryX=1.003;entryY=0.858;entryDx=0;entryDy=0;strokeWidth=2;entryPerimeter=0;" edge="1" parent="1" target="PbOfhPjGaJXk7FXD5pcL-17">
          <mxGeometry relative="1" as="geometry">
            <mxPoint x="830" y="170" as="sourcePoint" />
            <mxPoint x="782" y="306" as="targetPoint" />
          </mxGeometry>
        </mxCell>
      </root>
    </mxGraphModel>
  </diagram>
</mxfile>
